<?xml version="1.0" encoding="UTF-8" standalone="no"?>
<!DOCTYPE svg PUBLIC "-//W3C//DTD SVG 1.1//EN"
 "http://www.w3.org/Graphics/SVG/1.1/DTD/svg11.dtd">
<!-- Generated by graphviz version 3.0.0 (20220226.1711)
 -->
<!-- Title: callgraph Pages: 1 -->
<svg width="3205pt" height="1826pt"
 viewBox="0.00 0.00 3205.03 1826.00" xmlns="http://www.w3.org/2000/svg" xmlns:xlink="http://www.w3.org/1999/xlink">
<g id="graph0" class="graph" transform="scale(1 1) rotate(0) translate(4 1822)">
<title>callgraph</title>
<polygon fill="white" stroke="transparent" points="-4,4 -4,-1822 3201.03,-1822 3201.03,4 -4,4"/>
<!-- github.com/nikolaydubina/go&#45;featureprocessing/cmd/generate.writeCodeToFile$1 -->
<g id="node1" class="node">
<title>github.com/nikolaydubina/go&#45;featureprocessing/cmd/generate.writeCodeToFile$1</title>
<ellipse fill="none" stroke="black" cx="2626.13" cy="-666" rx="300.85" ry="18"/>
<text text-anchor="middle" x="2626.13" y="-662.3" font-family="Times,serif" font-size="14.00">github.com/nikolaydubina/go&#45;featureprocessing/cmd/generate.writeCodeToFile$1</text>
</g>
<!-- (*os.File).Close -->
<g id="node2" class="node">
<title>(*os.File).Close</title>
<ellipse fill="none" stroke="black" cx="3080.04" cy="-693" rx="67.69" ry="18"/>
<text text-anchor="middle" x="3080.04" y="-689.3" font-family="Times,serif" font-size="14.00">(*os.File).Close</text>
</g>
<!-- github.com/nikolaydubina/go&#45;featureprocessing/cmd/generate.writeCodeToFile$1&#45;&gt;(*os.File).Close -->
<g id="edge1" class="edge">
<title>github.com/nikolaydubina/go&#45;featureprocessing/cmd/generate.writeCodeToFile$1&#45;&gt;(*os.File).Close</title>
<path fill="none" stroke="black" d="M2839.85,-678.71C2898.6,-682.22 2958.53,-685.8 3003.72,-688.5"/>
<polygon fill="black" stroke="black" points="3003.52,-691.99 3013.71,-689.1 3003.93,-685.01 3003.52,-691.99"/>
</g>
<!-- go.uber.org/multierr.Combine -->
<g id="node3" class="node">
<title>go.uber.org/multierr.Combine</title>
<ellipse fill="none" stroke="black" cx="3080.04" cy="-639" rx="116.98" ry="18"/>
<text text-anchor="middle" x="3080.04" y="-635.3" font-family="Times,serif" font-size="14.00">go.uber.org/multierr.Combine</text>
</g>
<!-- github.com/nikolaydubina/go&#45;featureprocessing/cmd/generate.writeCodeToFile$1&#45;&gt;go.uber.org/multierr.Combine -->
<g id="edge2" class="edge">
<title>github.com/nikolaydubina/go&#45;featureprocessing/cmd/generate.writeCodeToFile$1&#45;&gt;go.uber.org/multierr.Combine</title>
<path fill="none" stroke="black" d="M2839.85,-653.29C2881.29,-650.82 2923.31,-648.3 2960.34,-646.09"/>
<polygon fill="black" stroke="black" points="2960.87,-649.57 2970.65,-645.48 2960.45,-642.58 2960.87,-649.57"/>
</g>
<!-- flag.commandLineUsage -->
<g id="node4" class="node">
<title>flag.commandLineUsage</title>
<ellipse fill="none" stroke="black" cx="1997.38" cy="-774" rx="100.98" ry="18"/>
<text text-anchor="middle" x="1997.38" y="-770.3" font-family="Times,serif" font-size="14.00">flag.commandLineUsage</text>
</g>
<!-- flag.commandLineUsage&#45;&gt;github.com/nikolaydubina/go&#45;featureprocessing/cmd/generate.writeCodeToFile$1 -->
<g id="edge3" class="edge">
<title>flag.commandLineUsage&#45;&gt;github.com/nikolaydubina/go&#45;featureprocessing/cmd/generate.writeCodeToFile$1</title>
<path fill="none" stroke="black" d="M2093.79,-768.62C2150.77,-764.54 2224.43,-757.76 2289.21,-747 2381.71,-731.64 2486.49,-704.83 2554.07,-686.29"/>
<polygon fill="black" stroke="black" points="2555.05,-689.65 2563.76,-683.62 2553.19,-682.9 2555.05,-689.65"/>
</g>
<!-- runtime.clearpools -->
<g id="node5" class="node">
<title>runtime.clearpools</title>
<ellipse fill="none" stroke="black" cx="1997.38" cy="-720" rx="77.19" ry="18"/>
<text text-anchor="middle" x="1997.38" y="-716.3" font-family="Times,serif" font-size="14.00">runtime.clearpools</text>
</g>
<!-- runtime.clearpools&#45;&gt;github.com/nikolaydubina/go&#45;featureprocessing/cmd/generate.writeCodeToFile$1 -->
<g id="edge4" class="edge">
<title>runtime.clearpools&#45;&gt;github.com/nikolaydubina/go&#45;featureprocessing/cmd/generate.writeCodeToFile$1</title>
<path fill="none" stroke="black" d="M2070.28,-713.81C2160.67,-706.02 2319.09,-692.37 2443.57,-681.64"/>
<polygon fill="black" stroke="black" points="2443.94,-685.12 2453.61,-680.78 2443.34,-678.15 2443.94,-685.12"/>
</g>
<!-- (*sync.Once).doSlow -->
<g id="node6" class="node">
<title>(*sync.Once).doSlow</title>
<ellipse fill="none" stroke="black" cx="1997.38" cy="-666" rx="87.18" ry="18"/>
<text text-anchor="middle" x="1997.38" y="-662.3" font-family="Times,serif" font-size="14.00">(*sync.Once).doSlow</text>
</g>
<!-- (*sync.Once).doSlow&#45;&gt;github.com/nikolaydubina/go&#45;featureprocessing/cmd/generate.writeCodeToFile$1 -->
<g id="edge5" class="edge">
<title>(*sync.Once).doSlow&#45;&gt;github.com/nikolaydubina/go&#45;featureprocessing/cmd/generate.writeCodeToFile$1</title>
<path fill="none" stroke="black" d="M2084.54,-666C2145.14,-666 2230.25,-666 2315.04,-666"/>
<polygon fill="black" stroke="black" points="2315.1,-669.5 2325.1,-666 2315.1,-662.5 2315.1,-669.5"/>
</g>
<!-- github.com/nikolaydubina/go&#45;featureprocessing/cmd/generate.run -->
<g id="node7" class="node">
<title>github.com/nikolaydubina/go&#45;featureprocessing/cmd/generate.run</title>
<ellipse fill="none" stroke="black" cx="815.93" cy="-450" rx="244.26" ry="18"/>
<text text-anchor="middle" x="815.93" y="-446.3" font-family="Times,serif" font-size="14.00">github.com/nikolaydubina/go&#45;featureprocessing/cmd/generate.run</text>
</g>
<!-- os.Getenv -->
<g id="node8" class="node">
<title>os.Getenv</title>
<ellipse fill="none" stroke="black" cx="1399.83" cy="-720" rx="46.29" ry="18"/>
<text text-anchor="middle" x="1399.83" y="-716.3" font-family="Times,serif" font-size="14.00">os.Getenv</text>
</g>
<!-- github.com/nikolaydubina/go&#45;featureprocessing/cmd/generate.run&#45;&gt;os.Getenv -->
<g id="edge6" class="edge">
<title>github.com/nikolaydubina/go&#45;featureprocessing/cmd/generate.run&#45;&gt;os.Getenv</title>
<path fill="none" stroke="black" d="M837.33,-468.1C883.64,-513.95 1002.61,-633.07 1130.11,-684 1200.2,-712 1288.4,-715.46 1344.22,-716.41"/>
<polygon fill="black" stroke="black" points="1344.2,-719.91 1354.25,-716.57 1344.31,-712.91 1344.2,-719.91"/>
</g>
<!-- github.com/nikolaydubina/go&#45;featureprocessing/cmd/generate.run&#45;&gt;os.Getenv -->
<g id="edge7" class="edge">
<title>github.com/nikolaydubina/go&#45;featureprocessing/cmd/generate.run&#45;&gt;os.Getenv</title>
<path fill="none" stroke="black" d="M829.5,-468.16C868.76,-516.75 994.62,-647.88 1130.11,-702 1202.31,-730.84 1293.72,-733.65 1349.16,-729.6"/>
<polygon fill="black" stroke="black" points="1349.74,-733.06 1359.42,-728.74 1349.16,-726.09 1349.74,-733.06"/>
</g>
<!-- flag.StringVar -->
<g id="node9" class="node">
<title>flag.StringVar</title>
<ellipse fill="none" stroke="black" cx="1399.83" cy="-666" rx="60.39" ry="18"/>
<text text-anchor="middle" x="1399.83" y="-662.3" font-family="Times,serif" font-size="14.00">flag.StringVar</text>
</g>
<!-- github.com/nikolaydubina/go&#45;featureprocessing/cmd/generate.run&#45;&gt;flag.StringVar -->
<g id="edge8" class="edge">
<title>github.com/nikolaydubina/go&#45;featureprocessing/cmd/generate.run&#45;&gt;flag.StringVar</title>
<path fill="none" stroke="black" d="M838.76,-468C887.47,-507.01 1010.21,-599.06 1130.11,-639 1195.33,-660.73 1274,-666.42 1329.31,-667.32"/>
<polygon fill="black" stroke="black" points="1329.31,-670.82 1339.35,-667.44 1329.39,-663.83 1329.31,-670.82"/>
</g>
<!-- flag.Parse -->
<g id="node11" class="node">
<title>flag.Parse</title>
<ellipse fill="none" stroke="black" cx="1399.83" cy="-612" rx="46.29" ry="18"/>
<text text-anchor="middle" x="1399.83" y="-608.3" font-family="Times,serif" font-size="14.00">flag.Parse</text>
</g>
<!-- github.com/nikolaydubina/go&#45;featureprocessing/cmd/generate.run&#45;&gt;flag.Parse -->
<g id="edge10" class="edge">
<title>github.com/nikolaydubina/go&#45;featureprocessing/cmd/generate.run&#45;&gt;flag.Parse</title>
<path fill="none" stroke="black" d="M849.12,-467.84C904.6,-497.68 1022.64,-557.15 1130.11,-585 1202.17,-603.68 1288.21,-609.57 1343.17,-611.36"/>
<polygon fill="black" stroke="black" points="1343.3,-614.86 1353.4,-611.65 1343.5,-607.86 1343.3,-614.86"/>
</g>
<!-- log.Printf -->
<g id="node12" class="node">
<title>log.Printf</title>
<ellipse fill="none" stroke="black" cx="1399.83" cy="-558" rx="44.39" ry="18"/>
<text text-anchor="middle" x="1399.83" y="-554.3" font-family="Times,serif" font-size="14.00">log.Printf</text>
</g>
<!-- github.com/nikolaydubina/go&#45;featureprocessing/cmd/generate.run&#45;&gt;log.Printf -->
<g id="edge11" class="edge">
<title>github.com/nikolaydubina/go&#45;featureprocessing/cmd/generate.run&#45;&gt;log.Printf</title>
<path fill="none" stroke="black" d="M873.79,-467.51C936.1,-486.04 1039.3,-514.79 1130.11,-531 1204.26,-544.23 1291.17,-551.49 1345.62,-555.06"/>
<polygon fill="black" stroke="black" points="1345.53,-558.56 1355.73,-555.71 1345.98,-551.58 1345.53,-558.56"/>
</g>
<!-- io/ioutil.ReadFile -->
<g id="node13" class="node">
<title>io/ioutil.ReadFile</title>
<ellipse fill="none" stroke="black" cx="1399.83" cy="-504" rx="72.59" ry="18"/>
<text text-anchor="middle" x="1399.83" y="-500.3" font-family="Times,serif" font-size="14.00">io/ioutil.ReadFile</text>
</g>
<!-- github.com/nikolaydubina/go&#45;featureprocessing/cmd/generate.run&#45;&gt;io/ioutil.ReadFile -->
<g id="edge12" class="edge">
<title>github.com/nikolaydubina/go&#45;featureprocessing/cmd/generate.run&#45;&gt;io/ioutil.ReadFile</title>
<path fill="none" stroke="black" d="M968.68,-464.08C1081.84,-474.58 1231.76,-488.5 1321.44,-496.82"/>
<polygon fill="black" stroke="black" points="1321.25,-500.32 1331.53,-497.75 1321.9,-493.35 1321.25,-500.32"/>
</g>
<!-- github.com/nikolaydubina/go&#45;featureprocessing/cmd/generate.parseCode -->
<g id="node14" class="node">
<title>github.com/nikolaydubina/go&#45;featureprocessing/cmd/generate.parseCode</title>
<ellipse fill="none" stroke="black" cx="1399.83" cy="-450" rx="269.95" ry="18"/>
<text text-anchor="middle" x="1399.83" y="-446.3" font-family="Times,serif" font-size="14.00">github.com/nikolaydubina/go&#45;featureprocessing/cmd/generate.parseCode</text>
</g>
<!-- github.com/nikolaydubina/go&#45;featureprocessing/cmd/generate.run&#45;&gt;github.com/nikolaydubina/go&#45;featureprocessing/cmd/generate.parseCode -->
<g id="edge25" class="edge">
<title>github.com/nikolaydubina/go&#45;featureprocessing/cmd/generate.run&#45;&gt;github.com/nikolaydubina/go&#45;featureprocessing/cmd/generate.parseCode</title>
<path fill="none" stroke="black" d="M1060.34,-450C1080.05,-450 1100.07,-450 1120.01,-450"/>
<polygon fill="black" stroke="black" points="1120.1,-453.5 1130.1,-450 1120.1,-446.5 1120.1,-453.5"/>
</g>
<!-- strings.ToLower -->
<g id="node27" class="node">
<title>strings.ToLower</title>
<ellipse fill="none" stroke="black" cx="1399.83" cy="-396" rx="68.79" ry="18"/>
<text text-anchor="middle" x="1399.83" y="-392.3" font-family="Times,serif" font-size="14.00">strings.ToLower</text>
</g>
<!-- github.com/nikolaydubina/go&#45;featureprocessing/cmd/generate.run&#45;&gt;strings.ToLower -->
<g id="edge26" class="edge">
<title>github.com/nikolaydubina/go&#45;featureprocessing/cmd/generate.run&#45;&gt;strings.ToLower</title>
<path fill="none" stroke="black" d="M929.82,-434.05C1045.01,-421.45 1220.71,-405.38 1321.16,-398.44"/>
<polygon fill="black" stroke="black" points="1321.49,-401.92 1331.24,-397.76 1321.02,-394.94 1321.49,-401.92"/>
</g>
<!-- github.com/nikolaydubina/go&#45;featureprocessing/cmd/generate.run&#45;&gt;strings.ToLower -->
<g id="edge28" class="edge">
<title>github.com/nikolaydubina/go&#45;featureprocessing/cmd/generate.run&#45;&gt;strings.ToLower</title>
<path fill="none" stroke="black" d="M1007.06,-438.73C1118.28,-429.27 1251.93,-416.25 1330.88,-406.83"/>
<polygon fill="black" stroke="black" points="1331.67,-410.26 1341.17,-405.59 1330.82,-403.31 1331.67,-410.26"/>
</g>
<!-- fmt.Sprintf -->
<g id="node28" class="node">
<title>fmt.Sprintf</title>
<ellipse fill="none" stroke="black" cx="1399.83" cy="-342" rx="50.09" ry="18"/>
<text text-anchor="middle" x="1399.83" y="-338.3" font-family="Times,serif" font-size="14.00">fmt.Sprintf</text>
</g>
<!-- github.com/nikolaydubina/go&#45;featureprocessing/cmd/generate.run&#45;&gt;fmt.Sprintf -->
<g id="edge27" class="edge">
<title>github.com/nikolaydubina/go&#45;featureprocessing/cmd/generate.run&#45;&gt;fmt.Sprintf</title>
<path fill="none" stroke="black" d="M1026.6,-440.81C1050.39,-434.94 1073.47,-426.37 1094.11,-414 1118.85,-399.17 1105.39,-374.87 1130.11,-360 1198.38,-318.94 1294.42,-320.49 1351.28,-328.81"/>
<polygon fill="black" stroke="black" points="1351,-332.31 1361.42,-330.43 1352.1,-325.4 1351,-332.31"/>
</g>
<!-- github.com/nikolaydubina/go&#45;featureprocessing/cmd/generate.run&#45;&gt;fmt.Sprintf -->
<g id="edge29" class="edge">
<title>github.com/nikolaydubina/go&#45;featureprocessing/cmd/generate.run&#45;&gt;fmt.Sprintf</title>
<path fill="none" stroke="black" d="M895.99,-467.02C954.71,-471.83 1034.6,-467.67 1094.11,-432 1118.85,-417.17 1105.39,-392.87 1130.11,-378 1193.88,-339.64 1281.87,-338.47 1339.54,-340.97"/>
<polygon fill="black" stroke="black" points="1339.43,-344.47 1349.59,-341.46 1339.77,-337.48 1339.43,-344.47"/>
</g>
<!-- github.com/nikolaydubina/go&#45;featureprocessing/cmd/generate.generate -->
<g id="node29" class="node">
<title>github.com/nikolaydubina/go&#45;featureprocessing/cmd/generate.generate</title>
<ellipse fill="none" stroke="black" cx="1399.83" cy="-288" rx="262.65" ry="18"/>
<text text-anchor="middle" x="1399.83" y="-284.3" font-family="Times,serif" font-size="14.00">github.com/nikolaydubina/go&#45;featureprocessing/cmd/generate.generate</text>
</g>
<!-- github.com/nikolaydubina/go&#45;featureprocessing/cmd/generate.run&#45;&gt;github.com/nikolaydubina/go&#45;featureprocessing/cmd/generate.generate -->
<g id="edge42" class="edge">
<title>github.com/nikolaydubina/go&#45;featureprocessing/cmd/generate.run&#45;&gt;github.com/nikolaydubina/go&#45;featureprocessing/cmd/generate.generate</title>
<path fill="none" stroke="black" d="M1040.2,-442.75C1059.67,-436.11 1078.04,-426.81 1094.11,-414 1133.67,-382.46 1090.59,-337.6 1130.11,-306 1186.36,-261.01 1271.86,-260.29 1331.25,-268.86"/>
<polygon fill="black" stroke="black" points="1330.87,-272.34 1341.29,-270.43 1331.95,-265.43 1330.87,-272.34"/>
</g>
<!-- github.com/nikolaydubina/go&#45;featureprocessing/cmd/generate.run&#45;&gt;github.com/nikolaydubina/go&#45;featureprocessing/cmd/generate.generate -->
<g id="edge43" class="edge">
<title>github.com/nikolaydubina/go&#45;featureprocessing/cmd/generate.run&#45;&gt;github.com/nikolaydubina/go&#45;featureprocessing/cmd/generate.generate</title>
<path fill="none" stroke="black" d="M872.9,-467.53C934.03,-478.55 1031.54,-481.88 1094.11,-432 1133.67,-400.46 1090.59,-355.6 1130.11,-324 1141.71,-314.72 1154.56,-307.32 1168.16,-301.47"/>
<polygon fill="black" stroke="black" points="1169.71,-304.62 1177.7,-297.66 1167.12,-298.12 1169.71,-304.62"/>
</g>
<!-- (*flag.FlagSet).usage -->
<g id="node10" class="node">
<title>(*flag.FlagSet).usage</title>
<ellipse fill="none" stroke="black" cx="1997.38" cy="-612" rx="86.38" ry="18"/>
<text text-anchor="middle" x="1997.38" y="-608.3" font-family="Times,serif" font-size="14.00">(*flag.FlagSet).usage</text>
</g>
<!-- (*flag.FlagSet).usage&#45;&gt;github.com/nikolaydubina/go&#45;featureprocessing/cmd/generate.writeCodeToFile$1 -->
<g id="edge9" class="edge">
<title>(*flag.FlagSet).usage&#45;&gt;github.com/nikolaydubina/go&#45;featureprocessing/cmd/generate.writeCodeToFile$1</title>
<path fill="none" stroke="black" d="M2077.44,-618.81C2168.83,-626.69 2322.19,-639.9 2443.43,-650.34"/>
<polygon fill="black" stroke="black" points="2443.31,-653.85 2453.57,-651.22 2443.91,-646.87 2443.31,-653.85"/>
</g>
<!-- go/token.NewFileSet -->
<g id="node15" class="node">
<title>go/token.NewFileSet</title>
<ellipse fill="none" stroke="black" cx="1997.38" cy="-558" rx="85.29" ry="18"/>
<text text-anchor="middle" x="1997.38" y="-554.3" font-family="Times,serif" font-size="14.00">go/token.NewFileSet</text>
</g>
<!-- github.com/nikolaydubina/go&#45;featureprocessing/cmd/generate.parseCode&#45;&gt;go/token.NewFileSet -->
<g id="edge13" class="edge">
<title>github.com/nikolaydubina/go&#45;featureprocessing/cmd/generate.parseCode&#45;&gt;go/token.NewFileSet</title>
<path fill="none" stroke="black" d="M1631.84,-459.27C1645.01,-464.03 1657.7,-469.87 1669.56,-477 1694.28,-491.87 1680.78,-516.23 1705.56,-531 1768.68,-568.64 1853.54,-572.31 1915.3,-568.42"/>
<polygon fill="black" stroke="black" points="1915.66,-571.9 1925.39,-567.7 1915.17,-564.92 1915.66,-571.9"/>
</g>
<!-- go/parser.ParseFile -->
<g id="node25" class="node">
<title>go/parser.ParseFile</title>
<ellipse fill="none" stroke="black" cx="1997.38" cy="-504" rx="77.99" ry="18"/>
<text text-anchor="middle" x="1997.38" y="-500.3" font-family="Times,serif" font-size="14.00">go/parser.ParseFile</text>
</g>
<!-- github.com/nikolaydubina/go&#45;featureprocessing/cmd/generate.parseCode&#45;&gt;go/parser.ParseFile -->
<g id="edge23" class="edge">
<title>github.com/nikolaydubina/go&#45;featureprocessing/cmd/generate.parseCode&#45;&gt;go/parser.ParseFile</title>
<path fill="none" stroke="black" d="M1560.43,-464.47C1674.67,-474.83 1823.78,-488.35 1914.68,-496.59"/>
<polygon fill="black" stroke="black" points="1914.38,-500.08 1924.66,-497.5 1915.01,-493.11 1914.38,-500.08"/>
</g>
<!-- go/ast.Inspect -->
<g id="node26" class="node">
<title>go/ast.Inspect</title>
<ellipse fill="none" stroke="black" cx="1997.38" cy="-450" rx="59.59" ry="18"/>
<text text-anchor="middle" x="1997.38" y="-446.3" font-family="Times,serif" font-size="14.00">go/ast.Inspect</text>
</g>
<!-- github.com/nikolaydubina/go&#45;featureprocessing/cmd/generate.parseCode&#45;&gt;go/ast.Inspect -->
<g id="edge24" class="edge">
<title>github.com/nikolaydubina/go&#45;featureprocessing/cmd/generate.parseCode&#45;&gt;go/ast.Inspect</title>
<path fill="none" stroke="black" d="M1669.86,-450C1764.61,-450 1863.28,-450 1927.02,-450"/>
<polygon fill="black" stroke="black" points="1927.33,-453.5 1937.33,-450 1927.33,-446.5 1927.33,-453.5"/>
</g>
<!-- github.com/nikolaydubina/go&#45;featureprocessing/cmd/generate.parseCode$1 -->
<g id="node16" class="node">
<title>github.com/nikolaydubina/go&#45;featureprocessing/cmd/generate.parseCode$1</title>
<ellipse fill="none" stroke="black" cx="815.93" cy="-936" rx="278.35" ry="18"/>
<text text-anchor="middle" x="815.93" y="-932.3" font-family="Times,serif" font-size="14.00">github.com/nikolaydubina/go&#45;featureprocessing/cmd/generate.parseCode$1</text>
</g>
<!-- unicode/utf8.DecodeRuneInString -->
<g id="node17" class="node">
<title>unicode/utf8.DecodeRuneInString</title>
<ellipse fill="none" stroke="black" cx="1399.83" cy="-1098" rx="131.88" ry="18"/>
<text text-anchor="middle" x="1399.83" y="-1094.3" font-family="Times,serif" font-size="14.00">unicode/utf8.DecodeRuneInString</text>
</g>
<!-- github.com/nikolaydubina/go&#45;featureprocessing/cmd/generate.parseCode$1&#45;&gt;unicode/utf8.DecodeRuneInString -->
<g id="edge14" class="edge">
<title>github.com/nikolaydubina/go&#45;featureprocessing/cmd/generate.parseCode$1&#45;&gt;unicode/utf8.DecodeRuneInString</title>
<path fill="none" stroke="black" d="M1064.25,-944.19C1074.82,-949.4 1084.84,-955.62 1094.11,-963 1133.67,-994.54 1090.59,-1039.4 1130.11,-1071 1178.21,-1109.47 1247.7,-1115.57 1303.97,-1112.39"/>
<polygon fill="black" stroke="black" points="1304.21,-1115.88 1313.95,-1111.72 1303.74,-1108.9 1304.21,-1115.88"/>
</g>
<!-- unicode.IsLetter -->
<g id="node18" class="node">
<title>unicode.IsLetter</title>
<ellipse fill="none" stroke="black" cx="1399.83" cy="-1044" rx="68.49" ry="18"/>
<text text-anchor="middle" x="1399.83" y="-1040.3" font-family="Times,serif" font-size="14.00">unicode.IsLetter</text>
</g>
<!-- github.com/nikolaydubina/go&#45;featureprocessing/cmd/generate.parseCode$1&#45;&gt;unicode.IsLetter -->
<g id="edge15" class="edge">
<title>github.com/nikolaydubina/go&#45;featureprocessing/cmd/generate.parseCode$1&#45;&gt;unicode.IsLetter</title>
<path fill="none" stroke="black" d="M1056.22,-945.16C1069.44,-949.97 1082.18,-955.85 1094.11,-963 1118.85,-977.83 1105.39,-1002.13 1130.11,-1017 1189.9,-1052.96 1270.99,-1056.24 1328.4,-1052.68"/>
<polygon fill="black" stroke="black" points="1328.75,-1056.16 1338.48,-1051.97 1328.26,-1049.18 1328.75,-1056.16"/>
</g>
<!-- unicode.In -->
<g id="node19" class="node">
<title>unicode.In</title>
<ellipse fill="none" stroke="black" cx="1399.83" cy="-990" rx="48.19" ry="18"/>
<text text-anchor="middle" x="1399.83" y="-986.3" font-family="Times,serif" font-size="14.00">unicode.In</text>
</g>
<!-- github.com/nikolaydubina/go&#45;featureprocessing/cmd/generate.parseCode$1&#45;&gt;unicode.In -->
<g id="edge16" class="edge">
<title>github.com/nikolaydubina/go&#45;featureprocessing/cmd/generate.parseCode$1&#45;&gt;unicode.In</title>
<path fill="none" stroke="black" d="M975.94,-950.76C1097.88,-962.07 1259.06,-977.03 1342.84,-984.8"/>
<polygon fill="black" stroke="black" points="1342.63,-988.3 1352.91,-985.74 1343.28,-981.33 1342.63,-988.3"/>
</g>
<!-- strings.Trim -->
<g id="node20" class="node">
<title>strings.Trim</title>
<ellipse fill="none" stroke="black" cx="1399.83" cy="-936" rx="54.69" ry="18"/>
<text text-anchor="middle" x="1399.83" y="-932.3" font-family="Times,serif" font-size="14.00">strings.Trim</text>
</g>
<!-- github.com/nikolaydubina/go&#45;featureprocessing/cmd/generate.parseCode$1&#45;&gt;strings.Trim -->
<g id="edge17" class="edge">
<title>github.com/nikolaydubina/go&#45;featureprocessing/cmd/generate.parseCode$1&#45;&gt;strings.Trim</title>
<path fill="none" stroke="black" d="M1074.28,-929.29C1171.11,-929.06 1272.97,-929.83 1336.19,-931.62"/>
<polygon fill="black" stroke="black" points="1336.28,-935.12 1346.38,-931.93 1336.49,-928.13 1336.28,-935.12"/>
</g>
<!-- github.com/nikolaydubina/go&#45;featureprocessing/cmd/generate.parseCode$1&#45;&gt;strings.Trim -->
<g id="edge21" class="edge">
<title>github.com/nikolaydubina/go&#45;featureprocessing/cmd/generate.parseCode$1&#45;&gt;strings.Trim</title>
<path fill="none" stroke="black" d="M1074.28,-942.71C1171.11,-942.94 1272.97,-942.17 1336.19,-940.38"/>
<polygon fill="black" stroke="black" points="1336.49,-943.87 1346.38,-940.07 1336.28,-936.88 1336.49,-943.87"/>
</g>
<!-- strings.Fields -->
<g id="node21" class="node">
<title>strings.Fields</title>
<ellipse fill="none" stroke="black" cx="1399.83" cy="-882" rx="57.69" ry="18"/>
<text text-anchor="middle" x="1399.83" y="-878.3" font-family="Times,serif" font-size="14.00">strings.Fields</text>
</g>
<!-- github.com/nikolaydubina/go&#45;featureprocessing/cmd/generate.parseCode$1&#45;&gt;strings.Fields -->
<g id="edge18" class="edge">
<title>github.com/nikolaydubina/go&#45;featureprocessing/cmd/generate.parseCode$1&#45;&gt;strings.Fields</title>
<path fill="none" stroke="black" d="M975.94,-921.24C1093.8,-910.31 1248.32,-895.97 1334.18,-888"/>
<polygon fill="black" stroke="black" points="1334.67,-891.47 1344.3,-887.06 1334.02,-884.5 1334.67,-891.47"/>
</g>
<!-- strings.HasPrefix -->
<g id="node22" class="node">
<title>strings.HasPrefix</title>
<ellipse fill="none" stroke="black" cx="1399.83" cy="-828" rx="71.49" ry="18"/>
<text text-anchor="middle" x="1399.83" y="-824.3" font-family="Times,serif" font-size="14.00">strings.HasPrefix</text>
</g>
<!-- github.com/nikolaydubina/go&#45;featureprocessing/cmd/generate.parseCode$1&#45;&gt;strings.HasPrefix -->
<g id="edge19" class="edge">
<title>github.com/nikolaydubina/go&#45;featureprocessing/cmd/generate.parseCode$1&#45;&gt;strings.HasPrefix</title>
<path fill="none" stroke="black" d="M874.36,-918.32C936.72,-899.79 1039.57,-871.16 1130.11,-855 1193.42,-843.7 1266.03,-836.76 1319.8,-832.75"/>
<polygon fill="black" stroke="black" points="1320.23,-836.23 1329.95,-832.01 1319.73,-829.24 1320.23,-836.23"/>
</g>
<!-- strings.TrimPrefix -->
<g id="node23" class="node">
<title>strings.TrimPrefix</title>
<ellipse fill="none" stroke="black" cx="1399.83" cy="-774" rx="76.09" ry="18"/>
<text text-anchor="middle" x="1399.83" y="-770.3" font-family="Times,serif" font-size="14.00">strings.TrimPrefix</text>
</g>
<!-- github.com/nikolaydubina/go&#45;featureprocessing/cmd/generate.parseCode$1&#45;&gt;strings.TrimPrefix -->
<g id="edge20" class="edge">
<title>github.com/nikolaydubina/go&#45;featureprocessing/cmd/generate.parseCode$1&#45;&gt;strings.TrimPrefix</title>
<path fill="none" stroke="black" d="M849.56,-917.92C905.23,-888.01 1022.93,-828.77 1130.11,-801 1190.34,-785.39 1260.33,-778.71 1313.78,-775.89"/>
<polygon fill="black" stroke="black" points="1314.09,-779.38 1323.9,-775.4 1313.74,-772.39 1314.09,-779.38"/>
</g>
<!-- (go/ast.inspector).Visit -->
<g id="node24" class="node">
<title>(go/ast.inspector).Visit</title>
<ellipse fill="none" stroke="black" cx="250.88" cy="-936" rx="90.98" ry="18"/>
<text text-anchor="middle" x="250.88" y="-932.3" font-family="Times,serif" font-size="14.00">(go/ast.inspector).Visit</text>
</g>
<!-- (go/ast.inspector).Visit&#45;&gt;github.com/nikolaydubina/go&#45;featureprocessing/cmd/generate.parseCode$1 -->
<g id="edge22" class="edge">
<title>(go/ast.inspector).Visit&#45;&gt;github.com/nikolaydubina/go&#45;featureprocessing/cmd/generate.parseCode$1</title>
<path fill="none" stroke="black" d="M342.03,-936C393,-936 459.87,-936 527.21,-936"/>
<polygon fill="black" stroke="black" points="527.59,-939.5 537.59,-936 527.59,-932.5 527.59,-939.5"/>
</g>
<!-- bytes.NewBufferString -->
<g id="node30" class="node">
<title>bytes.NewBufferString</title>
<ellipse fill="none" stroke="black" cx="1997.38" cy="-396" rx="92.88" ry="18"/>
<text text-anchor="middle" x="1997.38" y="-392.3" font-family="Times,serif" font-size="14.00">bytes.NewBufferString</text>
</g>
<!-- github.com/nikolaydubina/go&#45;featureprocessing/cmd/generate.generate&#45;&gt;bytes.NewBufferString -->
<g id="edge30" class="edge">
<title>github.com/nikolaydubina/go&#45;featureprocessing/cmd/generate.generate&#45;&gt;bytes.NewBufferString</title>
<path fill="none" stroke="black" d="M1630.16,-296.67C1643.94,-301.53 1657.2,-307.57 1669.56,-315 1694.28,-329.87 1680.78,-354.23 1705.56,-369 1766.93,-405.59 1848.85,-410.08 1910.1,-406.72"/>
<polygon fill="black" stroke="black" points="1910.37,-410.21 1920.13,-406.09 1909.93,-403.23 1910.37,-410.21"/>
</g>
<!-- text/template.New -->
<g id="node31" class="node">
<title>text/template.New</title>
<ellipse fill="none" stroke="black" cx="1997.38" cy="-342" rx="76.09" ry="18"/>
<text text-anchor="middle" x="1997.38" y="-338.3" font-family="Times,serif" font-size="14.00">text/template.New</text>
</g>
<!-- github.com/nikolaydubina/go&#45;featureprocessing/cmd/generate.generate&#45;&gt;text/template.New -->
<g id="edge31" class="edge">
<title>github.com/nikolaydubina/go&#45;featureprocessing/cmd/generate.generate&#45;&gt;text/template.New</title>
<path fill="none" stroke="black" d="M1558.87,-302.33C1673.95,-312.76 1825.06,-326.47 1916.23,-334.73"/>
<polygon fill="black" stroke="black" points="1915.95,-338.22 1926.22,-335.64 1916.58,-331.25 1915.95,-338.22"/>
</g>
<!-- (*text/template.Template).Parse -->
<g id="node32" class="node">
<title>(*text/template.Template).Parse</title>
<ellipse fill="none" stroke="black" cx="1997.38" cy="-288" rx="124.28" ry="18"/>
<text text-anchor="middle" x="1997.38" y="-284.3" font-family="Times,serif" font-size="14.00">(*text/template.Template).Parse</text>
</g>
<!-- github.com/nikolaydubina/go&#45;featureprocessing/cmd/generate.generate&#45;&gt;(*text/template.Template).Parse -->
<g id="edge32" class="edge">
<title>github.com/nikolaydubina/go&#45;featureprocessing/cmd/generate.generate&#45;&gt;(*text/template.Template).Parse</title>
<path fill="none" stroke="black" d="M1662.48,-288C1731.71,-288 1803.59,-288 1862.84,-288"/>
<polygon fill="black" stroke="black" points="1862.99,-291.5 1872.99,-288 1862.99,-284.5 1862.99,-291.5"/>
</g>
<!-- (*text/template.Template).Execute -->
<g id="node33" class="node">
<title>(*text/template.Template).Execute</title>
<ellipse fill="none" stroke="black" cx="1997.38" cy="-234" rx="133.78" ry="18"/>
<text text-anchor="middle" x="1997.38" y="-230.3" font-family="Times,serif" font-size="14.00">(*text/template.Template).Execute</text>
</g>
<!-- github.com/nikolaydubina/go&#45;featureprocessing/cmd/generate.generate&#45;&gt;(*text/template.Template).Execute -->
<g id="edge33" class="edge">
<title>github.com/nikolaydubina/go&#45;featureprocessing/cmd/generate.generate&#45;&gt;(*text/template.Template).Execute</title>
<path fill="none" stroke="black" d="M1558.87,-273.67C1658.18,-264.67 1784.31,-253.23 1875.6,-244.95"/>
<polygon fill="black" stroke="black" points="1876.08,-248.42 1885.72,-244.03 1875.44,-241.45 1876.08,-248.42"/>
</g>
<!-- (*bytes.Buffer).Bytes -->
<g id="node34" class="node">
<title>(*bytes.Buffer).Bytes</title>
<ellipse fill="none" stroke="black" cx="1997.38" cy="-180" rx="87.18" ry="18"/>
<text text-anchor="middle" x="1997.38" y="-176.3" font-family="Times,serif" font-size="14.00">(*bytes.Buffer).Bytes</text>
</g>
<!-- github.com/nikolaydubina/go&#45;featureprocessing/cmd/generate.generate&#45;&gt;(*bytes.Buffer).Bytes -->
<g id="edge34" class="edge">
<title>github.com/nikolaydubina/go&#45;featureprocessing/cmd/generate.generate&#45;&gt;(*bytes.Buffer).Bytes</title>
<path fill="none" stroke="black" d="M1455.81,-270.4C1516.36,-251.73 1616.9,-222.78 1705.56,-207 1770.78,-195.39 1845.19,-188.6 1902.41,-184.73"/>
<polygon fill="black" stroke="black" points="1902.77,-188.21 1912.52,-184.06 1902.31,-181.23 1902.77,-188.21"/>
</g>
<!-- github.com/nikolaydubina/go&#45;featureprocessing/cmd/generate.writeCodeToFile -->
<g id="node35" class="node">
<title>github.com/nikolaydubina/go&#45;featureprocessing/cmd/generate.writeCodeToFile</title>
<ellipse fill="none" stroke="black" cx="1997.38" cy="-126" rx="291.65" ry="18"/>
<text text-anchor="middle" x="1997.38" y="-122.3" font-family="Times,serif" font-size="14.00">github.com/nikolaydubina/go&#45;featureprocessing/cmd/generate.writeCodeToFile</text>
</g>
<!-- github.com/nikolaydubina/go&#45;featureprocessing/cmd/generate.generate&#45;&gt;github.com/nikolaydubina/go&#45;featureprocessing/cmd/generate.writeCodeToFile -->
<g id="edge41" class="edge">
<title>github.com/nikolaydubina/go&#45;featureprocessing/cmd/generate.generate&#45;&gt;github.com/nikolaydubina/go&#45;featureprocessing/cmd/generate.writeCodeToFile</title>
<path fill="none" stroke="black" d="M1432.06,-270.05C1485.9,-240.05 1600.57,-180.35 1705.56,-153 1726.41,-147.57 1748.35,-143.2 1770.45,-139.68"/>
<polygon fill="black" stroke="black" points="1771.25,-143.1 1780.61,-138.13 1770.19,-136.18 1771.25,-143.1"/>
</g>
<!-- github.com/nikolaydubina/go&#45;featureprocessing/cmd/generate.writeCodeToFile&#45;&gt;github.com/nikolaydubina/go&#45;featureprocessing/cmd/generate.writeCodeToFile$1 -->
<g id="edge39" class="edge">
<title>github.com/nikolaydubina/go&#45;featureprocessing/cmd/generate.writeCodeToFile&#45;&gt;github.com/nikolaydubina/go&#45;featureprocessing/cmd/generate.writeCodeToFile$1</title>
<path fill="none" stroke="black" d="M2105.31,-109.26C2165.37,-105.88 2238.27,-112.57 2289.21,-153 2328.84,-184.45 2301.86,-216.11 2325.21,-261 2406.54,-417.38 2545.6,-578.44 2601.16,-639.97"/>
<polygon fill="black" stroke="black" points="2598.82,-642.6 2608.13,-647.65 2604,-637.89 2598.82,-642.6"/>
</g>
<!-- go/format.Source -->
<g id="node36" class="node">
<title>go/format.Source</title>
<ellipse fill="none" stroke="black" cx="2626.13" cy="-234" rx="72.59" ry="18"/>
<text text-anchor="middle" x="2626.13" y="-230.3" font-family="Times,serif" font-size="14.00">go/format.Source</text>
</g>
<!-- github.com/nikolaydubina/go&#45;featureprocessing/cmd/generate.writeCodeToFile&#45;&gt;go/format.Source -->
<g id="edge35" class="edge">
<title>github.com/nikolaydubina/go&#45;featureprocessing/cmd/generate.writeCodeToFile&#45;&gt;go/format.Source</title>
<path fill="none" stroke="black" d="M2250.87,-134.93C2264.24,-139.83 2277.12,-145.79 2289.21,-153 2313.98,-167.77 2300.41,-192.26 2325.21,-207 2394.53,-248.2 2489.2,-249.56 2553.5,-244.12"/>
<polygon fill="black" stroke="black" points="2553.92,-247.6 2563.55,-243.2 2553.28,-240.63 2553.92,-247.6"/>
</g>
<!-- path/filepath.Dir -->
<g id="node37" class="node">
<title>path/filepath.Dir</title>
<ellipse fill="none" stroke="black" cx="2626.13" cy="-180" rx="69.59" ry="18"/>
<text text-anchor="middle" x="2626.13" y="-176.3" font-family="Times,serif" font-size="14.00">path/filepath.Dir</text>
</g>
<!-- github.com/nikolaydubina/go&#45;featureprocessing/cmd/generate.writeCodeToFile&#45;&gt;path/filepath.Dir -->
<g id="edge36" class="edge">
<title>github.com/nikolaydubina/go&#45;featureprocessing/cmd/generate.writeCodeToFile&#45;&gt;path/filepath.Dir</title>
<path fill="none" stroke="black" d="M2167.99,-140.61C2292.69,-151.36 2456.16,-165.44 2550.03,-173.53"/>
<polygon fill="black" stroke="black" points="2549.74,-177.02 2560.01,-174.39 2550.34,-170.04 2549.74,-177.02"/>
</g>
<!-- os.MkdirAll -->
<g id="node38" class="node">
<title>os.MkdirAll</title>
<ellipse fill="none" stroke="black" cx="2626.13" cy="-126" rx="54.69" ry="18"/>
<text text-anchor="middle" x="2626.13" y="-122.3" font-family="Times,serif" font-size="14.00">os.MkdirAll</text>
</g>
<!-- github.com/nikolaydubina/go&#45;featureprocessing/cmd/generate.writeCodeToFile&#45;&gt;os.MkdirAll -->
<g id="edge37" class="edge">
<title>github.com/nikolaydubina/go&#45;featureprocessing/cmd/generate.writeCodeToFile&#45;&gt;os.MkdirAll</title>
<path fill="none" stroke="black" d="M2289.28,-126C2391.32,-126 2496.56,-126 2561.41,-126"/>
<polygon fill="black" stroke="black" points="2561.47,-129.5 2571.47,-126 2561.47,-122.5 2561.47,-129.5"/>
</g>
<!-- os.Create -->
<g id="node39" class="node">
<title>os.Create</title>
<ellipse fill="none" stroke="black" cx="2626.13" cy="-72" rx="44.39" ry="18"/>
<text text-anchor="middle" x="2626.13" y="-68.3" font-family="Times,serif" font-size="14.00">os.Create</text>
</g>
<!-- github.com/nikolaydubina/go&#45;featureprocessing/cmd/generate.writeCodeToFile&#45;&gt;os.Create -->
<g id="edge38" class="edge">
<title>github.com/nikolaydubina/go&#45;featureprocessing/cmd/generate.writeCodeToFile&#45;&gt;os.Create</title>
<path fill="none" stroke="black" d="M2167.99,-111.39C2303.47,-99.71 2484.71,-84.1 2572.74,-76.51"/>
<polygon fill="black" stroke="black" points="2573.09,-80 2582.75,-75.65 2572.49,-73.02 2573.09,-80"/>
</g>
<!-- (*os.File).Write -->
<g id="node40" class="node">
<title>(*os.File).Write</title>
<ellipse fill="none" stroke="black" cx="2626.13" cy="-18" rx="67.69" ry="18"/>
<text text-anchor="middle" x="2626.13" y="-14.3" font-family="Times,serif" font-size="14.00">(*os.File).Write</text>
</g>
<!-- github.com/nikolaydubina/go&#45;featureprocessing/cmd/generate.writeCodeToFile&#45;&gt;(*os.File).Write -->
<g id="edge40" class="edge">
<title>github.com/nikolaydubina/go&#45;featureprocessing/cmd/generate.writeCodeToFile&#45;&gt;(*os.File).Write</title>
<path fill="none" stroke="black" d="M2057.74,-108.37C2122.8,-89.74 2230.52,-60.9 2325.21,-45 2400.75,-32.31 2488.07,-25.31 2548.94,-21.63"/>
<polygon fill="black" stroke="black" points="2549.45,-25.11 2559.23,-21.03 2549.04,-18.12 2549.45,-25.11"/>
</g>
<!-- github.com/nikolaydubina/go&#45;featureprocessing/cmd/generate.main -->
<g id="node41" class="node">
<title>github.com/nikolaydubina/go&#45;featureprocessing/cmd/generate.main</title>
<ellipse fill="none" stroke="black" cx="250.88" cy="-423" rx="250.76" ry="18"/>
<text text-anchor="middle" x="250.88" y="-419.3" font-family="Times,serif" font-size="14.00">github.com/nikolaydubina/go&#45;featureprocessing/cmd/generate.main</text>
</g>
<!-- github.com/nikolaydubina/go&#45;featureprocessing/cmd/generate.main&#45;&gt;github.com/nikolaydubina/go&#45;featureprocessing/cmd/generate.run -->
<g id="edge44" class="edge">
<title>github.com/nikolaydubina/go&#45;featureprocessing/cmd/generate.main&#45;&gt;github.com/nikolaydubina/go&#45;featureprocessing/cmd/generate.run</title>
<path fill="none" stroke="black" d="M459.94,-432.98C505.76,-435.17 554.37,-437.51 600.44,-439.71"/>
<polygon fill="black" stroke="black" points="600.38,-443.22 610.54,-440.2 600.72,-436.22 600.38,-443.22"/>
</g>
<!-- log.Fatalf -->
<g id="node42" class="node">
<title>log.Fatalf</title>
<ellipse fill="none" stroke="black" cx="815.93" cy="-396" rx="44.69" ry="18"/>
<text text-anchor="middle" x="815.93" y="-392.3" font-family="Times,serif" font-size="14.00">log.Fatalf</text>
</g>
<!-- github.com/nikolaydubina/go&#45;featureprocessing/cmd/generate.main&#45;&gt;log.Fatalf -->
<g id="edge45" class="edge">
<title>github.com/nikolaydubina/go&#45;featureprocessing/cmd/generate.main&#45;&gt;log.Fatalf</title>
<path fill="none" stroke="black" d="M459.94,-413.02C568.1,-407.84 691.82,-401.9 760.93,-398.59"/>
<polygon fill="black" stroke="black" points="761.31,-402.08 771.13,-398.1 760.97,-395.08 761.31,-402.08"/>
</g>
<!-- github.com/nikolaydubina/go&#45;featureprocessing/cmd/generate.init -->
<g id="node43" class="node">
<title>github.com/nikolaydubina/go&#45;featureprocessing/cmd/generate.init</title>
<ellipse fill="none" stroke="black" cx="250.88" cy="-1395" rx="244.26" ry="18"/>
<text text-anchor="middle" x="250.88" y="-1391.3" font-family="Times,serif" font-size="14.00">github.com/nikolaydubina/go&#45;featureprocessing/cmd/generate.init</text>
</g>
<!-- bytes.init -->
<g id="node44" class="node">
<title>bytes.init</title>
<ellipse fill="none" stroke="black" cx="815.93" cy="-1800" rx="43.59" ry="18"/>
<text text-anchor="middle" x="815.93" y="-1796.3" font-family="Times,serif" font-size="14.00">bytes.init</text>
</g>
<!-- github.com/nikolaydubina/go&#45;featureprocessing/cmd/generate.init&#45;&gt;bytes.init -->
<g id="edge46" class="edge">
<title>github.com/nikolaydubina/go&#45;featureprocessing/cmd/generate.init&#45;&gt;bytes.init</title>
<path fill="none" stroke="black" d="M259.09,-1413.01C285.32,-1475.8 382.31,-1686.01 537.76,-1773 608.6,-1812.65 705.76,-1811.9 764.23,-1806.69"/>
<polygon fill="black" stroke="black" points="764.72,-1810.16 774.33,-1805.71 764.04,-1803.19 764.72,-1810.16"/>
</g>
<!-- flag.init -->
<g id="node45" class="node">
<title>flag.init</title>
<ellipse fill="none" stroke="black" cx="815.93" cy="-1746" rx="38.19" ry="18"/>
<text text-anchor="middle" x="815.93" y="-1742.3" font-family="Times,serif" font-size="14.00">flag.init</text>
</g>
<!-- github.com/nikolaydubina/go&#45;featureprocessing/cmd/generate.init&#45;&gt;flag.init -->
<g id="edge47" class="edge">
<title>github.com/nikolaydubina/go&#45;featureprocessing/cmd/generate.init&#45;&gt;flag.init</title>
<path fill="none" stroke="black" d="M261.32,-1413.2C292.05,-1470.27 395.48,-1646.29 537.76,-1719 611.52,-1756.7 710.7,-1756.03 768.24,-1751.46"/>
<polygon fill="black" stroke="black" points="768.82,-1754.93 778.48,-1750.57 768.22,-1747.95 768.82,-1754.93"/>
</g>
<!-- fmt.init -->
<g id="node46" class="node">
<title>fmt.init</title>
<ellipse fill="none" stroke="black" cx="815.93" cy="-1692" rx="37.89" ry="18"/>
<text text-anchor="middle" x="815.93" y="-1688.3" font-family="Times,serif" font-size="14.00">fmt.init</text>
</g>
<!-- github.com/nikolaydubina/go&#45;featureprocessing/cmd/generate.init&#45;&gt;fmt.init -->
<g id="edge48" class="edge">
<title>github.com/nikolaydubina/go&#45;featureprocessing/cmd/generate.init&#45;&gt;fmt.init</title>
<path fill="none" stroke="black" d="M264.11,-1412.99C299.53,-1463.34 407.88,-1605.91 537.76,-1665 613.16,-1699.3 711.79,-1699.78 768.78,-1696.35"/>
<polygon fill="black" stroke="black" points="769.17,-1699.83 778.92,-1695.67 768.71,-1692.85 769.17,-1699.83"/>
</g>
<!-- go/format.init -->
<g id="node47" class="node">
<title>go/format.init</title>
<ellipse fill="none" stroke="black" cx="815.93" cy="-1638" rx="59.59" ry="18"/>
<text text-anchor="middle" x="815.93" y="-1634.3" font-family="Times,serif" font-size="14.00">go/format.init</text>
</g>
<!-- github.com/nikolaydubina/go&#45;featureprocessing/cmd/generate.init&#45;&gt;go/format.init -->
<g id="edge49" class="edge">
<title>github.com/nikolaydubina/go&#45;featureprocessing/cmd/generate.init&#45;&gt;go/format.init</title>
<path fill="none" stroke="black" d="M268.44,-1413.04C309.29,-1456.17 420.12,-1565.09 537.76,-1611 605.53,-1637.45 689.38,-1642.13 747.01,-1641.5"/>
<polygon fill="black" stroke="black" points="747.15,-1645 757.09,-1641.33 747.04,-1638 747.15,-1645"/>
</g>
<!-- io/ioutil.init -->
<g id="node48" class="node">
<title>io/ioutil.init</title>
<ellipse fill="none" stroke="black" cx="815.93" cy="-1584" rx="52.79" ry="18"/>
<text text-anchor="middle" x="815.93" y="-1580.3" font-family="Times,serif" font-size="14.00">io/ioutil.init</text>
</g>
<!-- github.com/nikolaydubina/go&#45;featureprocessing/cmd/generate.init&#45;&gt;io/ioutil.init -->
<g id="edge50" class="edge">
<title>github.com/nikolaydubina/go&#45;featureprocessing/cmd/generate.init&#45;&gt;io/ioutil.init</title>
<path fill="none" stroke="black" d="M275.49,-1413.03C322.47,-1447.8 432.24,-1523.63 537.76,-1557 609.25,-1579.61 695.85,-1584.74 753.02,-1585.26"/>
<polygon fill="black" stroke="black" points="753.32,-1588.76 763.34,-1585.31 753.35,-1581.76 753.32,-1588.76"/>
</g>
<!-- log.init -->
<g id="node49" class="node">
<title>log.init</title>
<ellipse fill="none" stroke="black" cx="815.93" cy="-1530" rx="36.29" ry="18"/>
<text text-anchor="middle" x="815.93" y="-1526.3" font-family="Times,serif" font-size="14.00">log.init</text>
</g>
<!-- github.com/nikolaydubina/go&#45;featureprocessing/cmd/generate.init&#45;&gt;log.init -->
<g id="edge51" class="edge">
<title>github.com/nikolaydubina/go&#45;featureprocessing/cmd/generate.init&#45;&gt;log.init</title>
<path fill="none" stroke="black" d="M289.26,-1412.79C342.93,-1437.47 445.53,-1481.49 537.76,-1503 617.82,-1521.68 713.81,-1527.45 769.25,-1529.23"/>
<polygon fill="black" stroke="black" points="769.35,-1532.73 779.44,-1529.52 769.55,-1525.74 769.35,-1532.73"/>
</g>
<!-- os.init -->
<g id="node50" class="node">
<title>os.init</title>
<ellipse fill="none" stroke="black" cx="815.93" cy="-1476" rx="32.49" ry="18"/>
<text text-anchor="middle" x="815.93" y="-1472.3" font-family="Times,serif" font-size="14.00">os.init</text>
</g>
<!-- github.com/nikolaydubina/go&#45;featureprocessing/cmd/generate.init&#45;&gt;os.init -->
<g id="edge52" class="edge">
<title>github.com/nikolaydubina/go&#45;featureprocessing/cmd/generate.init&#45;&gt;os.init</title>
<path fill="none" stroke="black" d="M331.66,-1412.05C388.82,-1423.79 467.75,-1439 537.76,-1449 620.99,-1460.89 719.05,-1469.09 773.38,-1473.12"/>
<polygon fill="black" stroke="black" points="773.42,-1476.63 783.65,-1473.87 773.93,-1469.65 773.42,-1476.63"/>
</g>
<!-- path/filepath.init -->
<g id="node51" class="node">
<title>path/filepath.init</title>
<ellipse fill="none" stroke="black" cx="815.93" cy="-1422" rx="69.59" ry="18"/>
<text text-anchor="middle" x="815.93" y="-1418.3" font-family="Times,serif" font-size="14.00">path/filepath.init</text>
</g>
<!-- github.com/nikolaydubina/go&#45;featureprocessing/cmd/generate.init&#45;&gt;path/filepath.init -->
<g id="edge53" class="edge">
<title>github.com/nikolaydubina/go&#45;featureprocessing/cmd/generate.init&#45;&gt;path/filepath.init</title>
<path fill="none" stroke="black" d="M456.35,-1404.8C553.79,-1409.48 664.58,-1414.79 736.9,-1418.26"/>
<polygon fill="black" stroke="black" points="737.13,-1421.77 747.29,-1418.76 737.46,-1414.78 737.13,-1421.77"/>
</g>
<!-- strings.init -->
<g id="node52" class="node">
<title>strings.init</title>
<ellipse fill="none" stroke="black" cx="815.93" cy="-1368" rx="48.19" ry="18"/>
<text text-anchor="middle" x="815.93" y="-1364.3" font-family="Times,serif" font-size="14.00">strings.init</text>
</g>
<!-- github.com/nikolaydubina/go&#45;featureprocessing/cmd/generate.init&#45;&gt;strings.init -->
<g id="edge54" class="edge">
<title>github.com/nikolaydubina/go&#45;featureprocessing/cmd/generate.init&#45;&gt;strings.init</title>
<path fill="none" stroke="black" d="M456.35,-1385.2C563.84,-1380.04 687.56,-1374.11 757.98,-1370.73"/>
<polygon fill="black" stroke="black" points="758.15,-1374.23 767.97,-1370.25 757.82,-1367.23 758.15,-1374.23"/>
</g>
<!-- text/template.init -->
<g id="node53" class="node">
<title>text/template.init</title>
<ellipse fill="none" stroke="black" cx="815.93" cy="-1314" rx="71.49" ry="18"/>
<text text-anchor="middle" x="815.93" y="-1310.3" font-family="Times,serif" font-size="14.00">text/template.init</text>
</g>
<!-- github.com/nikolaydubina/go&#45;featureprocessing/cmd/generate.init&#45;&gt;text/template.init -->
<g id="edge55" class="edge">
<title>github.com/nikolaydubina/go&#45;featureprocessing/cmd/generate.init&#45;&gt;text/template.init</title>
<path fill="none" stroke="black" d="M331.66,-1377.95C388.82,-1366.21 467.75,-1351 537.76,-1341 604.67,-1331.44 681.16,-1324.27 736.81,-1319.73"/>
<polygon fill="black" stroke="black" points="737.26,-1323.21 746.95,-1318.91 736.7,-1316.23 737.26,-1323.21"/>
</g>
<!-- go.uber.org/multierr.init -->
<g id="node54" class="node">
<title>go.uber.org/multierr.init</title>
<ellipse fill="none" stroke="black" cx="815.93" cy="-1260" rx="96.38" ry="18"/>
<text text-anchor="middle" x="815.93" y="-1256.3" font-family="Times,serif" font-size="14.00">go.uber.org/multierr.init</text>
</g>
<!-- github.com/nikolaydubina/go&#45;featureprocessing/cmd/generate.init&#45;&gt;go.uber.org/multierr.init -->
<g id="edge56" class="edge">
<title>github.com/nikolaydubina/go&#45;featureprocessing/cmd/generate.init&#45;&gt;go.uber.org/multierr.init</title>
<path fill="none" stroke="black" d="M289.26,-1377.21C342.93,-1352.53 445.53,-1308.51 537.76,-1287 594.15,-1273.84 658.46,-1267.09 710.92,-1263.62"/>
<polygon fill="black" stroke="black" points="711.15,-1267.12 720.91,-1262.99 710.71,-1260.13 711.15,-1267.12"/>
</g>
<!-- go/ast.init -->
<g id="node55" class="node">
<title>go/ast.init</title>
<ellipse fill="none" stroke="black" cx="815.93" cy="-1206" rx="46.29" ry="18"/>
<text text-anchor="middle" x="815.93" y="-1202.3" font-family="Times,serif" font-size="14.00">go/ast.init</text>
</g>
<!-- github.com/nikolaydubina/go&#45;featureprocessing/cmd/generate.init&#45;&gt;go/ast.init -->
<g id="edge57" class="edge">
<title>github.com/nikolaydubina/go&#45;featureprocessing/cmd/generate.init&#45;&gt;go/ast.init</title>
<path fill="none" stroke="black" d="M275.49,-1376.97C322.47,-1342.2 432.24,-1266.37 537.76,-1233 611.96,-1209.53 702.45,-1204.9 759.39,-1204.7"/>
<polygon fill="black" stroke="black" points="759.62,-1208.2 769.62,-1204.71 759.63,-1201.2 759.62,-1208.2"/>
</g>
<!-- go/parser.init -->
<g id="node56" class="node">
<title>go/parser.init</title>
<ellipse fill="none" stroke="black" cx="815.93" cy="-1152" rx="57.39" ry="18"/>
<text text-anchor="middle" x="815.93" y="-1148.3" font-family="Times,serif" font-size="14.00">go/parser.init</text>
</g>
<!-- github.com/nikolaydubina/go&#45;featureprocessing/cmd/generate.init&#45;&gt;go/parser.init -->
<g id="edge58" class="edge">
<title>github.com/nikolaydubina/go&#45;featureprocessing/cmd/generate.init&#45;&gt;go/parser.init</title>
<path fill="none" stroke="black" d="M268.44,-1376.96C309.29,-1333.83 420.12,-1224.91 537.76,-1179 606.48,-1152.18 691.75,-1147.74 749.43,-1148.53"/>
<polygon fill="black" stroke="black" points="749.44,-1152.03 759.51,-1148.72 749.58,-1145.03 749.44,-1152.03"/>
</g>
<!-- go/token.init -->
<g id="node57" class="node">
<title>go/token.init</title>
<ellipse fill="none" stroke="black" cx="815.93" cy="-1098" rx="55.79" ry="18"/>
<text text-anchor="middle" x="815.93" y="-1094.3" font-family="Times,serif" font-size="14.00">go/token.init</text>
</g>
<!-- github.com/nikolaydubina/go&#45;featureprocessing/cmd/generate.init&#45;&gt;go/token.init -->
<g id="edge59" class="edge">
<title>github.com/nikolaydubina/go&#45;featureprocessing/cmd/generate.init&#45;&gt;go/token.init</title>
<path fill="none" stroke="black" d="M264.11,-1377.01C299.53,-1326.66 407.88,-1184.09 537.76,-1125 606.05,-1093.93 693.4,-1090.61 751.6,-1092.81"/>
<polygon fill="black" stroke="black" points="751.61,-1096.31 761.76,-1093.26 751.93,-1089.32 751.61,-1096.31"/>
</g>
<!-- unicode.init -->
<g id="node58" class="node">
<title>unicode.init</title>
<ellipse fill="none" stroke="black" cx="815.93" cy="-1044" rx="52.79" ry="18"/>
<text text-anchor="middle" x="815.93" y="-1040.3" font-family="Times,serif" font-size="14.00">unicode.init</text>
</g>
<!-- github.com/nikolaydubina/go&#45;featureprocessing/cmd/generate.init&#45;&gt;unicode.init -->
<g id="edge60" class="edge">
<title>github.com/nikolaydubina/go&#45;featureprocessing/cmd/generate.init&#45;&gt;unicode.init</title>
<path fill="none" stroke="black" d="M261.32,-1376.8C292.05,-1319.73 395.48,-1143.71 537.76,-1071 606.39,-1035.92 697.04,-1034.06 755.66,-1037.65"/>
<polygon fill="black" stroke="black" points="755.65,-1041.16 765.86,-1038.35 756.12,-1034.18 755.65,-1041.16"/>
</g>
<!-- unicode/utf8.init -->
<g id="node59" class="node">
<title>unicode/utf8.init</title>
<ellipse fill="none" stroke="black" cx="815.93" cy="-990" rx="69.59" ry="18"/>
<text text-anchor="middle" x="815.93" y="-986.3" font-family="Times,serif" font-size="14.00">unicode/utf8.init</text>
</g>
<!-- github.com/nikolaydubina/go&#45;featureprocessing/cmd/generate.init&#45;&gt;unicode/utf8.init -->
<g id="edge61" class="edge">
<title>github.com/nikolaydubina/go&#45;featureprocessing/cmd/generate.init&#45;&gt;unicode/utf8.init</title>
<path fill="none" stroke="black" d="M259.09,-1376.99C285.32,-1314.2 382.31,-1103.99 537.76,-1017 600.34,-981.97 683.47,-978.48 742.31,-981.73"/>
<polygon fill="black" stroke="black" points="742.44,-985.24 752.64,-982.38 742.88,-978.26 742.44,-985.24"/>
</g>
</g>
</svg>
