<?xml version="1.0" encoding="UTF-8" standalone="no"?>
<!DOCTYPE svg PUBLIC "-//W3C//DTD SVG 1.1//EN"
 "http://www.w3.org/Graphics/SVG/1.1/DTD/svg11.dtd">
<!-- Generated by graphviz version 3.0.0 (20220226.1711)
 -->
<!-- Title: gomodgraph Pages: 1 -->
<svg width="1075pt" height="404pt"
 viewBox="0.00 0.00 1074.50 404.00" xmlns="http://www.w3.org/2000/svg" xmlns:xlink="http://www.w3.org/1999/xlink">
<g id="graph0" class="graph" transform="scale(1 1) rotate(0) translate(4 400)">
<title>gomodgraph</title>
<polygon fill="white" stroke="transparent" points="-4,4 -4,-400 1070.5,-400 1070.5,4 -4,4"/>
<!-- github.com/nikolaydubina/go&#45;featureprocessing -->
<g id="node1" class="node">
<title>github.com/nikolaydubina/go&#45;featureprocessing</title>
<polygon fill="none" stroke="black" points="516.5,-396 274.5,-396 274.5,-360 516.5,-360 516.5,-396"/>
<text text-anchor="middle" x="395.5" y="-374.9" font-family="Times,serif" font-size="12.00">github.com/nikolaydubina/go&#45;featureprocessing</text>
</g>
<!-- github.com/google/gofuzz@v1.2.0 -->
<g id="node2" class="node">
<title>github.com/google/gofuzz@v1.2.0</title>
<polygon fill="green" stroke="black" points="367.5,-324 185.5,-324 185.5,-288 367.5,-288 367.5,-324"/>
<text text-anchor="middle" x="276.5" y="-302.9" font-family="Times,serif" font-size="12.00">github.com/google/gofuzz@v1.2.0</text>
</g>
<!-- github.com/nikolaydubina/go&#45;featureprocessing&#45;&gt;github.com/google/gofuzz@v1.2.0 -->
<g id="edge1" class="edge">
<title>github.com/nikolaydubina/go&#45;featureprocessing&#45;&gt;github.com/google/gofuzz@v1.2.0</title>
<path fill="none" stroke="black" d="M366.39,-359.88C350.83,-350.72 331.48,-339.34 314.72,-329.48"/>
<polygon fill="black" stroke="black" points="316.12,-326.24 305.72,-324.19 312.57,-332.28 316.12,-326.24"/>
</g>
<!-- github.com/stretchr/testify@v1.7.1 -->
<g id="node3" class="node">
<title>github.com/stretchr/testify@v1.7.1</title>
<polygon fill="green" stroke="black" points="315.5,-180 135.5,-180 135.5,-144 315.5,-144 315.5,-180"/>
<text text-anchor="middle" x="225.5" y="-158.9" font-family="Times,serif" font-size="12.00">github.com/stretchr/testify@v1.7.1</text>
</g>
<!-- github.com/nikolaydubina/go&#45;featureprocessing&#45;&gt;github.com/stretchr/testify@v1.7.1 -->
<g id="edge2" class="edge">
<title>github.com/nikolaydubina/go&#45;featureprocessing&#45;&gt;github.com/stretchr/testify@v1.7.1</title>
<path fill="none" stroke="black" d="M395.13,-359.71C394,-340.82 390.01,-310.29 376.5,-288 349.38,-243.25 300.36,-207.16 265.54,-185.47"/>
<polygon fill="black" stroke="black" points="266.93,-182.22 256.57,-180.01 263.29,-188.2 266.93,-182.22"/>
</g>
<!-- go.uber.org/multierr@v1.8.0 -->
<g id="node4" class="node">
<title>go.uber.org/multierr@v1.8.0</title>
<polygon fill="green" stroke="black" points="662.5,-324 510.5,-324 510.5,-288 662.5,-288 662.5,-324"/>
<text text-anchor="middle" x="586.5" y="-302.9" font-family="Times,serif" font-size="12.00">go.uber.org/multierr@v1.8.0</text>
</g>
<!-- github.com/nikolaydubina/go&#45;featureprocessing&#45;&gt;go.uber.org/multierr@v1.8.0 -->
<g id="edge3" class="edge">
<title>github.com/nikolaydubina/go&#45;featureprocessing&#45;&gt;go.uber.org/multierr@v1.8.0</title>
<path fill="none" stroke="black" d="M442.22,-359.88C468.8,-350.14 502.26,-337.87 530.27,-327.61"/>
<polygon fill="black" stroke="black" points="531.74,-330.8 539.93,-324.07 529.33,-324.22 531.74,-330.8"/>
</g>
<!-- github.com/davecgh/go&#45;spew@v1.1.0 -->
<g id="node5" class="node">
<title>github.com/davecgh/go&#45;spew@v1.1.0</title>
<polygon fill="gray" stroke="black" points="514,-108 317,-108 317,-72 514,-72 514,-108"/>
<text text-anchor="middle" x="415.5" y="-86.9" font-family="Times,serif" font-size="12.00">github.com/davecgh/go&#45;spew@v1.1.0</text>
</g>
<!-- github.com/stretchr/testify@v1.7.1&#45;&gt;github.com/davecgh/go&#45;spew@v1.1.0 -->
<g id="edge4" class="edge">
<title>github.com/stretchr/testify@v1.7.1&#45;&gt;github.com/davecgh/go&#45;spew@v1.1.0</title>
<path fill="none" stroke="black" d="M271.98,-143.88C298.42,-134.14 331.7,-121.87 359.56,-111.61"/>
<polygon fill="black" stroke="black" points="361,-114.81 369.17,-108.07 358.58,-108.24 361,-114.81"/>
</g>
<!-- github.com/pmezard/go&#45;difflib@v1.0.0 -->
<g id="node6" class="node">
<title>github.com/pmezard/go&#45;difflib@v1.0.0</title>
<polygon fill="green" stroke="black" points="734.5,-108 532.5,-108 532.5,-72 734.5,-72 734.5,-108"/>
<text text-anchor="middle" x="633.5" y="-86.9" font-family="Times,serif" font-size="12.00">github.com/pmezard/go&#45;difflib@v1.0.0</text>
</g>
<!-- github.com/stretchr/testify@v1.7.1&#45;&gt;github.com/pmezard/go&#45;difflib@v1.0.0 -->
<g id="edge5" class="edge">
<title>github.com/stretchr/testify@v1.7.1&#45;&gt;github.com/pmezard/go&#45;difflib@v1.0.0</title>
<path fill="none" stroke="black" d="M315.61,-145.53C318.61,-145.01 321.58,-144.5 324.5,-144 390.8,-132.62 465.11,-119.87 524.24,-109.73"/>
<polygon fill="black" stroke="black" points="525.08,-113.14 534.35,-108 523.9,-106.24 525.08,-113.14"/>
</g>
<!-- github.com/stretchr/objx@v0.1.0 -->
<g id="node7" class="node">
<title>github.com/stretchr/objx@v0.1.0</title>
<polygon fill="green" stroke="black" points="926,-108 753,-108 753,-72 926,-72 926,-108"/>
<text text-anchor="middle" x="839.5" y="-86.9" font-family="Times,serif" font-size="12.00">github.com/stretchr/objx@v0.1.0</text>
</g>
<!-- github.com/stretchr/testify@v1.7.1&#45;&gt;github.com/stretchr/objx@v0.1.0 -->
<g id="edge6" class="edge">
<title>github.com/stretchr/testify@v1.7.1&#45;&gt;github.com/stretchr/objx@v0.1.0</title>
<path fill="none" stroke="black" d="M315.56,-145.2C318.57,-144.78 321.56,-144.38 324.5,-144 506.62,-120.58 556.44,-131.9 742.81,-108.01"/>
<polygon fill="black" stroke="black" points="743.48,-111.45 752.95,-106.69 742.58,-104.51 743.48,-111.45"/>
</g>
<!-- gopkg.in/yaml.v3@v3.0.0&#45;20200313102051&#45;9f266ea9e77c -->
<g id="node8" class="node">
<title>gopkg.in/yaml.v3@v3.0.0&#45;20200313102051&#45;9f266ea9e77c</title>
<polygon fill="gray" stroke="black" points="299,-108 0,-108 0,-72 299,-72 299,-108"/>
<text text-anchor="middle" x="149.5" y="-86.9" font-family="Times,serif" font-size="12.00">gopkg.in/yaml.v3@v3.0.0&#45;20200313102051&#45;9f266ea9e77c</text>
</g>
<!-- github.com/stretchr/testify@v1.7.1&#45;&gt;gopkg.in/yaml.v3@v3.0.0&#45;20200313102051&#45;9f266ea9e77c -->
<g id="edge7" class="edge">
<title>github.com/stretchr/testify@v1.7.1&#45;&gt;gopkg.in/yaml.v3@v3.0.0&#45;20200313102051&#45;9f266ea9e77c</title>
<path fill="none" stroke="black" d="M206.71,-143.7C197.33,-135.05 185.82,-124.45 175.59,-115.03"/>
<polygon fill="black" stroke="black" points="177.8,-112.3 168.07,-108.1 173.05,-117.45 177.8,-112.3"/>
</g>
<!-- github.com/stretchr/testify@v1.7.0 -->
<g id="node9" class="node">
<title>github.com/stretchr/testify@v1.7.0</title>
<polygon fill="gray" stroke="black" points="513.5,-180 333.5,-180 333.5,-144 513.5,-144 513.5,-180"/>
<text text-anchor="middle" x="423.5" y="-158.9" font-family="Times,serif" font-size="12.00">github.com/stretchr/testify@v1.7.0</text>
</g>
<!-- go.uber.org/multierr@v1.8.0&#45;&gt;github.com/stretchr/testify@v1.7.0 -->
<g id="edge8" class="edge">
<title>go.uber.org/multierr@v1.8.0&#45;&gt;github.com/stretchr/testify@v1.7.0</title>
<path fill="none" stroke="black" d="M566.84,-287.87C537.96,-262.71 483.94,-215.65 451.1,-187.04"/>
<polygon fill="black" stroke="black" points="453.07,-184.12 443.23,-180.19 448.47,-189.4 453.07,-184.12"/>
</g>
<!-- go.uber.org/atomic@v1.7.0 -->
<g id="node10" class="node">
<title>go.uber.org/atomic@v1.7.0</title>
<polygon fill="green" stroke="black" points="703.5,-252 557.5,-252 557.5,-216 703.5,-216 703.5,-252"/>
<text text-anchor="middle" x="630.5" y="-230.9" font-family="Times,serif" font-size="12.00">go.uber.org/atomic@v1.7.0</text>
</g>
<!-- go.uber.org/multierr@v1.8.0&#45;&gt;go.uber.org/atomic@v1.7.0 -->
<g id="edge9" class="edge">
<title>go.uber.org/multierr@v1.8.0&#45;&gt;go.uber.org/atomic@v1.7.0</title>
<path fill="none" stroke="black" d="M597.38,-287.7C602.49,-279.56 608.7,-269.69 614.34,-260.7"/>
<polygon fill="black" stroke="black" points="617.39,-262.43 619.75,-252.1 611.46,-258.71 617.39,-262.43"/>
</g>
<!-- gopkg.in/yaml.v3@v3.0.0&#45;20210107192922&#45;496545a6307b -->
<g id="node11" class="node">
<title>gopkg.in/yaml.v3@v3.0.0&#45;20210107192922&#45;496545a6307b</title>
<polygon fill="green" stroke="black" points="1066.5,-252 762.5,-252 762.5,-216 1066.5,-216 1066.5,-252"/>
<text text-anchor="middle" x="914.5" y="-230.9" font-family="Times,serif" font-size="12.00">gopkg.in/yaml.v3@v3.0.0&#45;20210107192922&#45;496545a6307b</text>
</g>
<!-- go.uber.org/multierr@v1.8.0&#45;&gt;gopkg.in/yaml.v3@v3.0.0&#45;20210107192922&#45;496545a6307b -->
<g id="edge10" class="edge">
<title>go.uber.org/multierr@v1.8.0&#45;&gt;gopkg.in/yaml.v3@v3.0.0&#45;20210107192922&#45;496545a6307b</title>
<path fill="none" stroke="black" d="M662.57,-288.76C711.01,-278.43 773.97,-264.99 824.84,-254.14"/>
<polygon fill="black" stroke="black" points="825.79,-257.51 834.84,-252 824.33,-250.67 825.79,-257.51"/>
</g>
<!-- gopkg.in/check.v1@v0.0.0&#45;20161208181325&#45;20d25e280405 -->
<g id="node12" class="node">
<title>gopkg.in/check.v1@v0.0.0&#45;20161208181325&#45;20d25e280405</title>
<polygon fill="green" stroke="black" points="706.5,-36 398.5,-36 398.5,0 706.5,0 706.5,-36"/>
<text text-anchor="middle" x="552.5" y="-14.9" font-family="Times,serif" font-size="12.00">gopkg.in/check.v1@v0.0.0&#45;20161208181325&#45;20d25e280405</text>
</g>
<!-- gopkg.in/yaml.v3@v3.0.0&#45;20200313102051&#45;9f266ea9e77c&#45;&gt;gopkg.in/check.v1@v0.0.0&#45;20161208181325&#45;20d25e280405 -->
<g id="edge11" class="edge">
<title>gopkg.in/yaml.v3@v3.0.0&#45;20200313102051&#45;9f266ea9e77c&#45;&gt;gopkg.in/check.v1@v0.0.0&#45;20161208181325&#45;20d25e280405</title>
<path fill="none" stroke="black" d="M247.57,-71.97C307.05,-61.63 383.02,-48.44 444.26,-37.8"/>
<polygon fill="black" stroke="black" points="445.09,-41.21 454.34,-36.05 443.89,-34.31 445.09,-41.21"/>
</g>
<!-- github.com/stretchr/testify@v1.7.0&#45;&gt;github.com/davecgh/go&#45;spew@v1.1.0 -->
<g id="edge12" class="edge">
<title>github.com/stretchr/testify@v1.7.0&#45;&gt;github.com/davecgh/go&#45;spew@v1.1.0</title>
<path fill="none" stroke="black" d="M421.52,-143.7C420.64,-135.98 419.58,-126.71 418.6,-118.11"/>
<polygon fill="black" stroke="black" points="422.07,-117.64 417.45,-108.1 415.11,-118.44 422.07,-117.64"/>
</g>
<!-- github.com/stretchr/testify@v1.7.0&#45;&gt;github.com/pmezard/go&#45;difflib@v1.0.0 -->
<g id="edge13" class="edge">
<title>github.com/stretchr/testify@v1.7.0&#45;&gt;github.com/pmezard/go&#45;difflib@v1.0.0</title>
<path fill="none" stroke="black" d="M474.6,-143.97C504.07,-134.14 541.31,-121.73 572.33,-111.39"/>
<polygon fill="black" stroke="black" points="573.79,-114.59 582.17,-108.11 571.57,-107.95 573.79,-114.59"/>
</g>
<!-- github.com/stretchr/testify@v1.7.0&#45;&gt;github.com/stretchr/objx@v0.1.0 -->
<g id="edge14" class="edge">
<title>github.com/stretchr/testify@v1.7.0&#45;&gt;github.com/stretchr/objx@v0.1.0</title>
<path fill="none" stroke="black" d="M513.6,-145.49C516.6,-144.99 519.58,-144.49 522.5,-144 617.49,-128.11 643.72,-124.88 742.76,-108.11"/>
<polygon fill="black" stroke="black" points="743.63,-111.52 752.9,-106.39 742.46,-104.61 743.63,-111.52"/>
</g>
<!-- github.com/stretchr/testify@v1.7.0&#45;&gt;gopkg.in/yaml.v3@v3.0.0&#45;20200313102051&#45;9f266ea9e77c -->
<g id="edge15" class="edge">
<title>github.com/stretchr/testify@v1.7.0&#45;&gt;gopkg.in/yaml.v3@v3.0.0&#45;20200313102051&#45;9f266ea9e77c</title>
<path fill="none" stroke="black" d="M356.82,-143.97C317.37,-133.89 267.25,-121.08 226.17,-110.59"/>
<polygon fill="black" stroke="black" points="227.03,-107.2 216.48,-108.11 225.3,-113.98 227.03,-107.2"/>
</g>
<!-- github.com/davecgh/go&#45;spew@v1.1.1 -->
<g id="node13" class="node">
<title>github.com/davecgh/go&#45;spew@v1.1.1</title>
<polygon fill="green" stroke="black" points="729,-180 532,-180 532,-144 729,-144 729,-180"/>
<text text-anchor="middle" x="630.5" y="-158.9" font-family="Times,serif" font-size="12.00">github.com/davecgh/go&#45;spew@v1.1.1</text>
</g>
<!-- go.uber.org/atomic@v1.7.0&#45;&gt;github.com/davecgh/go&#45;spew@v1.1.1 -->
<g id="edge16" class="edge">
<title>go.uber.org/atomic@v1.7.0&#45;&gt;github.com/davecgh/go&#45;spew@v1.1.1</title>
<path fill="none" stroke="black" d="M630.5,-215.7C630.5,-207.98 630.5,-198.71 630.5,-190.11"/>
<polygon fill="black" stroke="black" points="634,-190.1 630.5,-180.1 627,-190.1 634,-190.1"/>
</g>
<!-- github.com/stretchr/testify@v1.3.0 -->
<g id="node14" class="node">
<title>github.com/stretchr/testify@v1.3.0</title>
<polygon fill="gray" stroke="black" points="927.5,-180 747.5,-180 747.5,-144 927.5,-144 927.5,-180"/>
<text text-anchor="middle" x="837.5" y="-158.9" font-family="Times,serif" font-size="12.00">github.com/stretchr/testify@v1.3.0</text>
</g>
<!-- go.uber.org/atomic@v1.7.0&#45;&gt;github.com/stretchr/testify@v1.3.0 -->
<g id="edge17" class="edge">
<title>go.uber.org/atomic@v1.7.0&#45;&gt;github.com/stretchr/testify@v1.3.0</title>
<path fill="none" stroke="black" d="M680.87,-215.97C709.92,-206.14 746.63,-193.73 777.21,-183.39"/>
<polygon fill="black" stroke="black" points="778.55,-186.63 786.9,-180.11 776.31,-180 778.55,-186.63"/>
</g>
<!-- gopkg.in/yaml.v3@v3.0.0&#45;20210107192922&#45;496545a6307b&#45;&gt;gopkg.in/check.v1@v0.0.0&#45;20161208181325&#45;20d25e280405 -->
<g id="edge18" class="edge">
<title>gopkg.in/yaml.v3@v3.0.0&#45;20210107192922&#45;496545a6307b&#45;&gt;gopkg.in/check.v1@v0.0.0&#45;20161208181325&#45;20d25e280405</title>
<path fill="none" stroke="black" d="M924.23,-215.96C941.29,-183.58 971.52,-112.77 935.5,-72 906.42,-39.09 807.02,-25.97 716.77,-21.02"/>
<polygon fill="black" stroke="black" points="716.83,-17.52 706.66,-20.49 716.47,-24.51 716.83,-17.52"/>
</g>
<!-- github.com/stretchr/testify@v1.3.0&#45;&gt;github.com/davecgh/go&#45;spew@v1.1.0 -->
<g id="edge19" class="edge">
<title>github.com/stretchr/testify@v1.3.0&#45;&gt;github.com/davecgh/go&#45;spew@v1.1.0</title>
<path fill="none" stroke="black" d="M747.29,-145.64C743.98,-145.09 740.71,-144.54 737.5,-144 666.57,-132.13 586.82,-119 524.43,-108.78"/>
<polygon fill="black" stroke="black" points="524.61,-105.27 514.17,-107.1 523.47,-112.17 524.61,-105.27"/>
</g>
<!-- github.com/stretchr/testify@v1.3.0&#45;&gt;github.com/pmezard/go&#45;difflib@v1.0.0 -->
<g id="edge20" class="edge">
<title>github.com/stretchr/testify@v1.3.0&#45;&gt;github.com/pmezard/go&#45;difflib@v1.0.0</title>
<path fill="none" stroke="black" d="M787.86,-143.97C759.23,-134.14 723.05,-121.73 692.92,-111.39"/>
<polygon fill="black" stroke="black" points="693.96,-108.05 683.37,-108.11 691.69,-114.67 693.96,-108.05"/>
</g>
<!-- github.com/stretchr/testify@v1.3.0&#45;&gt;github.com/stretchr/objx@v0.1.0 -->
<g id="edge21" class="edge">
<title>github.com/stretchr/testify@v1.3.0&#45;&gt;github.com/stretchr/objx@v0.1.0</title>
<path fill="none" stroke="black" d="M837.99,-143.7C838.21,-135.98 838.48,-126.71 838.73,-118.11"/>
<polygon fill="black" stroke="black" points="842.22,-118.2 839.01,-108.1 835.23,-118 842.22,-118.2"/>
</g>
</g>
</svg>
