<?xml version="1.0" encoding="UTF-8" standalone="no"?>
<!DOCTYPE svg PUBLIC "-//W3C//DTD SVG 1.1//EN"
 "http://www.w3.org/Graphics/SVG/1.1/DTD/svg11.dtd">
<!-- Generated by graphviz version 2.47.0 (20210316.0004)
 -->
<!-- Title: G Pages: 1 -->
<svg width="1060pt" height="983pt"
 viewBox="0.00 0.00 1060.00 982.99" xmlns="http://www.w3.org/2000/svg" xmlns:xlink="http://www.w3.org/1999/xlink">
<g id="graph0" class="graph" transform="scale(1 1) rotate(0) translate(4 978.99)">
<title>G</title>
<polygon fill="white" stroke="transparent" points="-4,4 -4,-978.99 1056,-978.99 1056,4 -4,4"/>
<!-- go.uber.org/atomic -->
<g id="node1" class="node">
<title>go.uber.org/atomic</title>
<polygon fill="none" stroke="black" points="804,-596.49 804,-632.49 924,-632.49 924,-596.49 804,-596.49"/>
<text text-anchor="middle" x="864" y="-610.79" font-family="Times,serif" font-size="14.00">go.uber.org/atomic</text>
</g>
<!-- encoding/json -->
<g id="node2" class="node">
<title>encoding/json</title>
<polygon fill="none" stroke="black" points="960,-568.49 960,-604.49 1052,-604.49 1052,-568.49 960,-568.49"/>
<text text-anchor="middle" x="1006" y="-582.79" font-family="Times,serif" font-size="14.00">encoding/json</text>
</g>
<!-- go.uber.org/atomic&#45;&gt;encoding/json -->
<g id="edge1" class="edge">
<title>go.uber.org/atomic&#45;&gt;encoding/json</title>
<path fill="none" stroke="black" d="M924.37,-602.62C932.85,-600.92 941.54,-599.18 949.93,-597.51"/>
<polygon fill="black" stroke="black" points="950.86,-600.89 959.98,-595.5 949.49,-594.03 950.86,-600.89"/>
</g>
<!-- math -->
<g id="node3" class="node">
<title>math</title>
<polygon fill="none" stroke="black" points="979,-259.49 979,-295.49 1033,-295.49 1033,-259.49 979,-259.49"/>
<text text-anchor="middle" x="1006" y="-273.79" font-family="Times,serif" font-size="14.00">math</text>
</g>
<!-- go.uber.org/atomic&#45;&gt;math -->
<g id="edge2" class="edge">
<title>go.uber.org/atomic&#45;&gt;math</title>
<path fill="none" stroke="black" d="M913.1,-596.39C917.16,-593.53 920.89,-590.25 924,-586.49 960.03,-543.02 989.98,-373.24 1000.74,-305.56"/>
<polygon fill="black" stroke="black" points="1004.21,-306.03 1002.3,-295.61 997.29,-304.95 1004.21,-306.03"/>
</g>
<!-- strconv -->
<g id="node4" class="node">
<title>strconv</title>
<polygon fill="none" stroke="black" points="978,-513.49 978,-549.49 1034,-549.49 1034,-513.49 978,-513.49"/>
<text text-anchor="middle" x="1006" y="-527.79" font-family="Times,serif" font-size="14.00">strconv</text>
</g>
<!-- go.uber.org/atomic&#45;&gt;strconv -->
<g id="edge3" class="edge">
<title>go.uber.org/atomic&#45;&gt;strconv</title>
<path fill="none" stroke="black" d="M906.24,-596.34C912.31,-593.26 918.4,-589.94 924,-586.49 941.26,-575.86 943.28,-569.95 960,-558.49 962.87,-556.53 965.88,-554.55 968.93,-552.6"/>
<polygon fill="black" stroke="black" points="970.9,-555.5 977.54,-547.25 967.2,-549.56 970.9,-555.5"/>
</g>
<!-- sync/atomic -->
<g id="node5" class="node">
<title>sync/atomic</title>
<polygon fill="none" stroke="black" points="964.5,-678.49 964.5,-714.49 1047.5,-714.49 1047.5,-678.49 964.5,-678.49"/>
<text text-anchor="middle" x="1006" y="-692.79" font-family="Times,serif" font-size="14.00">sync/atomic</text>
</g>
<!-- go.uber.org/atomic&#45;&gt;sync/atomic -->
<g id="edge4" class="edge">
<title>go.uber.org/atomic&#45;&gt;sync/atomic</title>
<path fill="none" stroke="black" d="M907.47,-632.59C913.12,-635.39 918.77,-638.38 924,-641.49 941.19,-651.71 943.49,-657.2 960,-668.49 962.13,-669.95 964.33,-671.42 966.56,-672.89"/>
<polygon fill="black" stroke="black" points="964.93,-676 975.23,-678.48 968.72,-670.12 964.93,-676"/>
</g>
<!-- time -->
<g id="node6" class="node">
<title>time</title>
<polygon fill="none" stroke="black" points="979,-623.49 979,-659.49 1033,-659.49 1033,-623.49 979,-623.49"/>
<text text-anchor="middle" x="1006" y="-637.79" font-family="Times,serif" font-size="14.00">time</text>
</g>
<!-- go.uber.org/atomic&#45;&gt;time -->
<g id="edge5" class="edge">
<title>go.uber.org/atomic&#45;&gt;time</title>
<path fill="none" stroke="black" d="M924.37,-625.94C939.58,-628.87 955.46,-631.94 969.08,-634.56"/>
<polygon fill="black" stroke="black" points="968.51,-638.02 979,-636.48 969.84,-631.15 968.51,-638.02"/>
</g>
<!-- go.uber.org/multierr -->
<g id="node7" class="node">
<title>go.uber.org/multierr</title>
<polygon fill="none" stroke="black" points="529.5,-624.49 529.5,-660.49 656.5,-660.49 656.5,-624.49 529.5,-624.49"/>
<text text-anchor="middle" x="593" y="-638.79" font-family="Times,serif" font-size="14.00">go.uber.org/multierr</text>
</g>
<!-- go.uber.org/multierr&#45;&gt;go.uber.org/atomic -->
<g id="edge9" class="edge">
<title>go.uber.org/multierr&#45;&gt;go.uber.org/atomic</title>
<path fill="none" stroke="black" d="M656.73,-635.96C697.83,-631.68 751.59,-626.09 793.92,-621.68"/>
<polygon fill="black" stroke="black" points="794.28,-625.16 803.86,-620.65 793.56,-618.2 794.28,-625.16"/>
</g>
<!-- bytes -->
<g id="node8" class="node">
<title>bytes</title>
<polygon fill="none" stroke="black" points="837,-706.49 837,-742.49 891,-742.49 891,-706.49 837,-706.49"/>
<text text-anchor="middle" x="864" y="-720.79" font-family="Times,serif" font-size="14.00">bytes</text>
</g>
<!-- go.uber.org/multierr&#45;&gt;bytes -->
<g id="edge6" class="edge">
<title>go.uber.org/multierr&#45;&gt;bytes</title>
<path fill="none" stroke="black" d="M656.59,-649.12C690.35,-653.98 732.29,-662.14 768,-675.49 785.35,-681.98 787.62,-687.85 804,-696.49 811.64,-700.52 819.96,-704.64 827.87,-708.42"/>
<polygon fill="black" stroke="black" points="826.38,-711.59 836.92,-712.7 829.37,-705.26 826.38,-711.59"/>
</g>
<!-- errors -->
<g id="node9" class="node">
<title>errors</title>
<polygon fill="none" stroke="black" points="837,-541.49 837,-577.49 891,-577.49 891,-541.49 837,-541.49"/>
<text text-anchor="middle" x="864" y="-555.79" font-family="Times,serif" font-size="14.00">errors</text>
</g>
<!-- go.uber.org/multierr&#45;&gt;errors -->
<g id="edge7" class="edge">
<title>go.uber.org/multierr&#45;&gt;errors</title>
<path fill="none" stroke="black" d="M656.81,-636.44C690.63,-631.74 732.57,-623.56 768,-609.49 785.65,-602.49 787.33,-595.58 804,-586.49 811.45,-582.43 819.63,-578.42 827.46,-574.78"/>
<polygon fill="black" stroke="black" points="829.11,-577.88 836.77,-570.55 826.22,-571.51 829.11,-577.88"/>
</g>
<!-- fmt -->
<g id="node10" class="node">
<title>fmt</title>
<polygon fill="none" stroke="black" points="837,-486.49 837,-522.49 891,-522.49 891,-486.49 837,-486.49"/>
<text text-anchor="middle" x="864" y="-500.79" font-family="Times,serif" font-size="14.00">fmt</text>
</g>
<!-- go.uber.org/multierr&#45;&gt;fmt -->
<g id="edge8" class="edge">
<title>go.uber.org/multierr&#45;&gt;fmt</title>
<path fill="none" stroke="black" d="M656.9,-644.21C692.8,-642.09 736.74,-633.9 768,-609.49 798.09,-586 776.96,-558.45 804,-531.49 810.55,-524.96 818.97,-519.84 827.38,-515.9"/>
<polygon fill="black" stroke="black" points="828.92,-519.05 836.78,-511.94 826.2,-512.6 828.92,-519.05"/>
</g>
<!-- io -->
<g id="node11" class="node">
<title>io</title>
<polygon fill="none" stroke="black" points="837,-651.49 837,-687.49 891,-687.49 891,-651.49 837,-651.49"/>
<text text-anchor="middle" x="864" y="-665.79" font-family="Times,serif" font-size="14.00">io</text>
</g>
<!-- go.uber.org/multierr&#45;&gt;io -->
<g id="edge10" class="edge">
<title>go.uber.org/multierr&#45;&gt;io</title>
<path fill="none" stroke="black" d="M656.73,-648.79C709.51,-654.09 783.14,-661.48 826.66,-665.84"/>
<polygon fill="black" stroke="black" points="826.49,-669.34 836.79,-666.86 827.19,-662.38 826.49,-669.34"/>
</g>
<!-- strings -->
<g id="node12" class="node">
<title>strings</title>
<polygon fill="none" stroke="black" points="837,-107.49 837,-143.49 891,-143.49 891,-107.49 837,-107.49"/>
<text text-anchor="middle" x="864" y="-121.79" font-family="Times,serif" font-size="14.00">strings</text>
</g>
<!-- go.uber.org/multierr&#45;&gt;strings -->
<g id="edge11" class="edge">
<title>go.uber.org/multierr&#45;&gt;strings</title>
<path fill="none" stroke="black" d="M656.61,-634.57C694.76,-626.34 741.18,-609.58 768,-575.49 806.11,-527.06 790.09,-360.53 804,-300.49 816.33,-247.28 838.38,-187.38 851.75,-153.27"/>
<polygon fill="black" stroke="black" points="855.17,-154.13 855.6,-143.55 848.67,-151.55 855.17,-154.13"/>
</g>
<!-- sync -->
<g id="node13" class="node">
<title>sync</title>
<polygon fill="none" stroke="black" points="837,-310.49 837,-346.49 891,-346.49 891,-310.49 837,-310.49"/>
<text text-anchor="middle" x="864" y="-324.79" font-family="Times,serif" font-size="14.00">sync</text>
</g>
<!-- go.uber.org/multierr&#45;&gt;sync -->
<g id="edge12" class="edge">
<title>go.uber.org/multierr&#45;&gt;sync</title>
<path fill="none" stroke="black" d="M656.7,-631.82C693.43,-622.59 738.3,-605.76 768,-575.49 800.79,-542.08 787.33,-520.24 804,-476.49 820.1,-434.23 839.71,-385.57 851.77,-355.94"/>
<polygon fill="black" stroke="black" points="855.02,-357.23 855.55,-346.65 848.54,-354.59 855.02,-357.23"/>
</g>
<!-- github.com/nikolaydubina/go&#45;featureprocessing/cmd/generate -->
<g id="node14" class="node">
<title>github.com/nikolaydubina/go&#45;featureprocessing/cmd/generate</title>
<polygon fill="none" stroke="black" points="14,-502.49 14,-538.49 368,-538.49 368,-502.49 14,-502.49"/>
<text text-anchor="middle" x="191" y="-516.79" font-family="Times,serif" font-size="14.00">github.com/nikolaydubina/go&#45;featureprocessing/cmd/generate</text>
</g>
<!-- github.com/nikolaydubina/go&#45;featureprocessing/cmd/generate&#45;&gt;go.uber.org/multierr -->
<g id="edge16" class="edge">
<title>github.com/nikolaydubina/go&#45;featureprocessing/cmd/generate&#45;&gt;go.uber.org/multierr</title>
<path fill="none" stroke="black" d="M231.22,-538.55C275.69,-558.41 350.75,-590.06 418,-609.49 450.78,-618.97 487.85,-626.43 519.32,-631.84"/>
<polygon fill="black" stroke="black" points="518.88,-635.32 529.32,-633.53 520.04,-628.41 518.88,-635.32"/>
</g>
<!-- github.com/nikolaydubina/go&#45;featureprocessing/cmd/generate&#45;&gt;bytes -->
<g id="edge13" class="edge">
<title>github.com/nikolaydubina/go&#45;featureprocessing/cmd/generate&#45;&gt;bytes</title>
<path fill="none" stroke="black" d="M211.98,-538.53C249.33,-571.05 333.59,-638.97 418,-669.49 565.19,-722.71 612.99,-686.82 768,-708.49 787.52,-711.22 809.21,-714.83 826.92,-717.93"/>
<polygon fill="black" stroke="black" points="826.39,-721.39 836.85,-719.68 827.61,-714.5 826.39,-721.39"/>
</g>
<!-- github.com/nikolaydubina/go&#45;featureprocessing/cmd/generate&#45;&gt;fmt -->
<g id="edge15" class="edge">
<title>github.com/nikolaydubina/go&#45;featureprocessing/cmd/generate&#45;&gt;fmt</title>
<path fill="none" stroke="black" d="M233.96,-538.55C332.64,-578.12 584.86,-662.28 768,-575.49 790.83,-564.67 783.99,-546.93 804,-531.49 811.05,-526.05 819.37,-521.4 827.51,-517.56"/>
<polygon fill="black" stroke="black" points="829.15,-520.67 836.89,-513.44 826.33,-514.26 829.15,-520.67"/>
</g>
<!-- github.com/nikolaydubina/go&#45;featureprocessing/cmd/generate&#45;&gt;strings -->
<g id="edge25" class="edge">
<title>github.com/nikolaydubina/go&#45;featureprocessing/cmd/generate&#45;&gt;strings</title>
<path fill="none" stroke="black" d="M196.04,-502.34C211.43,-438.08 272.99,-220.69 418,-135.49 550.79,-57.47 746.53,-94.87 826.72,-115.26"/>
<polygon fill="black" stroke="black" points="826.25,-118.76 836.81,-117.9 828.02,-111.99 826.25,-118.76"/>
</g>
<!-- flag -->
<g id="node15" class="node">
<title>flag</title>
<polygon fill="none" stroke="black" points="566,-530.49 566,-566.49 620,-566.49 620,-530.49 566,-530.49"/>
<text text-anchor="middle" x="593" y="-544.79" font-family="Times,serif" font-size="14.00">flag</text>
</g>
<!-- github.com/nikolaydubina/go&#45;featureprocessing/cmd/generate&#45;&gt;flag -->
<g id="edge14" class="edge">
<title>github.com/nikolaydubina/go&#45;featureprocessing/cmd/generate&#45;&gt;flag</title>
<path fill="none" stroke="black" d="M368.03,-532.81C438.36,-537.74 512.71,-542.94 555.6,-545.94"/>
<polygon fill="black" stroke="black" points="555.58,-549.45 565.8,-546.66 556.07,-542.47 555.58,-549.45"/>
</g>
<!-- go/ast -->
<g id="node16" class="node">
<title>go/ast</title>
<polygon fill="none" stroke="black" points="566,-475.49 566,-511.49 620,-511.49 620,-475.49 566,-475.49"/>
<text text-anchor="middle" x="593" y="-489.79" font-family="Times,serif" font-size="14.00">go/ast</text>
</g>
<!-- github.com/nikolaydubina/go&#45;featureprocessing/cmd/generate&#45;&gt;go/ast -->
<g id="edge17" class="edge">
<title>github.com/nikolaydubina/go&#45;featureprocessing/cmd/generate&#45;&gt;go/ast</title>
<path fill="none" stroke="black" d="M368.03,-508.61C438.36,-503.86 512.71,-498.84 555.6,-495.95"/>
<polygon fill="black" stroke="black" points="556.06,-499.43 565.8,-495.26 555.59,-492.44 556.06,-499.43"/>
</g>
<!-- go/format -->
<g id="node17" class="node">
<title>go/format</title>
<polygon fill="none" stroke="black" points="557.5,-420.49 557.5,-456.49 628.5,-456.49 628.5,-420.49 557.5,-420.49"/>
<text text-anchor="middle" x="593" y="-434.79" font-family="Times,serif" font-size="14.00">go/format</text>
</g>
<!-- github.com/nikolaydubina/go&#45;featureprocessing/cmd/generate&#45;&gt;go/format -->
<g id="edge18" class="edge">
<title>github.com/nikolaydubina/go&#45;featureprocessing/cmd/generate&#45;&gt;go/format</title>
<path fill="none" stroke="black" d="M259.91,-502.37C304.61,-490.84 364.53,-476.13 418,-465.49 461.66,-456.81 511.95,-449.27 547.21,-444.38"/>
<polygon fill="black" stroke="black" points="547.75,-447.84 557.18,-443.01 546.8,-440.9 547.75,-447.84"/>
</g>
<!-- go/parser -->
<g id="node18" class="node">
<title>go/parser</title>
<polygon fill="none" stroke="black" points="559.5,-365.49 559.5,-401.49 626.5,-401.49 626.5,-365.49 559.5,-365.49"/>
<text text-anchor="middle" x="593" y="-379.79" font-family="Times,serif" font-size="14.00">go/parser</text>
</g>
<!-- github.com/nikolaydubina/go&#45;featureprocessing/cmd/generate&#45;&gt;go/parser -->
<g id="edge19" class="edge">
<title>github.com/nikolaydubina/go&#45;featureprocessing/cmd/generate&#45;&gt;go/parser</title>
<path fill="none" stroke="black" d="M221.87,-502.33C264.02,-477.57 344.08,-433.64 418,-410.49 461.55,-396.86 513.47,-389.94 549.19,-386.55"/>
<polygon fill="black" stroke="black" points="549.63,-390.02 559.27,-385.64 549,-383.05 549.63,-390.02"/>
</g>
<!-- go/token -->
<g id="node19" class="node">
<title>go/token</title>
<polygon fill="none" stroke="black" points="561,-310.49 561,-346.49 625,-346.49 625,-310.49 561,-310.49"/>
<text text-anchor="middle" x="593" y="-324.79" font-family="Times,serif" font-size="14.00">go/token</text>
</g>
<!-- github.com/nikolaydubina/go&#45;featureprocessing/cmd/generate&#45;&gt;go/token -->
<g id="edge20" class="edge">
<title>github.com/nikolaydubina/go&#45;featureprocessing/cmd/generate&#45;&gt;go/token</title>
<path fill="none" stroke="black" d="M210.02,-502.49C246.03,-467.7 330.91,-391.52 418,-355.49 461.06,-337.68 514.54,-331.5 550.76,-329.43"/>
<polygon fill="black" stroke="black" points="551.14,-332.91 560.96,-328.92 550.8,-325.92 551.14,-332.91"/>
</g>
<!-- io/ioutil -->
<g id="node20" class="node">
<title>io/ioutil</title>
<polygon fill="none" stroke="black" points="563.5,-255.49 563.5,-291.49 622.5,-291.49 622.5,-255.49 563.5,-255.49"/>
<text text-anchor="middle" x="593" y="-269.79" font-family="Times,serif" font-size="14.00">io/ioutil</text>
</g>
<!-- github.com/nikolaydubina/go&#45;featureprocessing/cmd/generate&#45;&gt;io/ioutil -->
<g id="edge21" class="edge">
<title>github.com/nikolaydubina/go&#45;featureprocessing/cmd/generate&#45;&gt;io/ioutil</title>
<path fill="none" stroke="black" d="M204.26,-502.49C234.71,-459.38 318.54,-350.13 418,-300.49 460.82,-279.12 516.34,-273.79 553.01,-272.87"/>
<polygon fill="black" stroke="black" points="553.34,-276.37 563.29,-272.72 553.24,-269.37 553.34,-276.37"/>
</g>
<!-- log -->
<g id="node21" class="node">
<title>log</title>
<polygon fill="none" stroke="black" points="566,-200.49 566,-236.49 620,-236.49 620,-200.49 566,-200.49"/>
<text text-anchor="middle" x="593" y="-214.79" font-family="Times,serif" font-size="14.00">log</text>
</g>
<!-- github.com/nikolaydubina/go&#45;featureprocessing/cmd/generate&#45;&gt;log -->
<g id="edge22" class="edge">
<title>github.com/nikolaydubina/go&#45;featureprocessing/cmd/generate&#45;&gt;log</title>
<path fill="none" stroke="black" d="M200.9,-502.2C226.55,-451.6 306.08,-309.34 418,-245.49 460.78,-221.09 518.62,-216.71 555.63,-216.81"/>
<polygon fill="black" stroke="black" points="555.89,-220.32 565.94,-216.96 555.99,-213.32 555.89,-220.32"/>
</g>
<!-- os -->
<g id="node22" class="node">
<title>os</title>
<polygon fill="none" stroke="black" points="566,-145.49 566,-181.49 620,-181.49 620,-145.49 566,-145.49"/>
<text text-anchor="middle" x="593" y="-159.79" font-family="Times,serif" font-size="14.00">os</text>
</g>
<!-- github.com/nikolaydubina/go&#45;featureprocessing/cmd/generate&#45;&gt;os -->
<g id="edge23" class="edge">
<title>github.com/nikolaydubina/go&#45;featureprocessing/cmd/generate&#45;&gt;os</title>
<path fill="none" stroke="black" d="M198.39,-502.36C219.5,-445.43 292.85,-269.32 418,-190.49 459.79,-164.17 518.13,-160.32 555.49,-161.06"/>
<polygon fill="black" stroke="black" points="555.79,-164.57 565.9,-161.39 556.02,-157.57 555.79,-164.57"/>
</g>
<!-- path/filepath -->
<g id="node23" class="node">
<title>path/filepath</title>
<polygon fill="none" stroke="black" points="551,-883.49 551,-919.49 635,-919.49 635,-883.49 551,-883.49"/>
<text text-anchor="middle" x="593" y="-897.79" font-family="Times,serif" font-size="14.00">path/filepath</text>
</g>
<!-- github.com/nikolaydubina/go&#45;featureprocessing/cmd/generate&#45;&gt;path/filepath -->
<g id="edge24" class="edge">
<title>github.com/nikolaydubina/go&#45;featureprocessing/cmd/generate&#45;&gt;path/filepath</title>
<path fill="none" stroke="black" d="M197.57,-538.65C216.87,-598.25 287.03,-789.01 418,-874.49 454.27,-898.17 503.69,-903.91 540.59,-904.31"/>
<polygon fill="black" stroke="black" points="540.65,-907.81 550.65,-904.29 540.64,-900.81 540.65,-907.81"/>
</g>
<!-- text/template -->
<g id="node24" class="node">
<title>text/template</title>
<polygon fill="none" stroke="black" points="549,-828.49 549,-864.49 637,-864.49 637,-828.49 549,-828.49"/>
<text text-anchor="middle" x="593" y="-842.79" font-family="Times,serif" font-size="14.00">text/template</text>
</g>
<!-- github.com/nikolaydubina/go&#45;featureprocessing/cmd/generate&#45;&gt;text/template -->
<g id="edge26" class="edge">
<title>github.com/nikolaydubina/go&#45;featureprocessing/cmd/generate&#45;&gt;text/template</title>
<path fill="none" stroke="black" d="M199.77,-538.72C223.54,-592 300.82,-748.13 418,-818.49 454.29,-840.28 502.17,-846.7 538.52,-847.99"/>
<polygon fill="black" stroke="black" points="538.84,-851.5 548.92,-848.24 539.01,-844.5 538.84,-851.5"/>
</g>
<!-- unicode -->
<g id="node25" class="node">
<title>unicode</title>
<polygon fill="none" stroke="black" points="563.5,-773.49 563.5,-809.49 622.5,-809.49 622.5,-773.49 563.5,-773.49"/>
<text text-anchor="middle" x="593" y="-787.79" font-family="Times,serif" font-size="14.00">unicode</text>
</g>
<!-- github.com/nikolaydubina/go&#45;featureprocessing/cmd/generate&#45;&gt;unicode -->
<g id="edge27" class="edge">
<title>github.com/nikolaydubina/go&#45;featureprocessing/cmd/generate&#45;&gt;unicode</title>
<path fill="none" stroke="black" d="M202.72,-538.62C231.17,-584.9 313.57,-707.71 418,-763.49 460.37,-786.12 516.22,-791.53 553.07,-792.32"/>
<polygon fill="black" stroke="black" points="553.36,-795.83 563.4,-792.44 553.44,-788.83 553.36,-795.83"/>
</g>
<!-- unicode/utf8 -->
<g id="node26" class="node">
<title>unicode/utf8</title>
<polygon fill="none" stroke="black" points="550.5,-718.49 550.5,-754.49 635.5,-754.49 635.5,-718.49 550.5,-718.49"/>
<text text-anchor="middle" x="593" y="-732.79" font-family="Times,serif" font-size="14.00">unicode/utf8</text>
</g>
<!-- github.com/nikolaydubina/go&#45;featureprocessing/cmd/generate&#45;&gt;unicode/utf8 -->
<g id="edge28" class="edge">
<title>github.com/nikolaydubina/go&#45;featureprocessing/cmd/generate&#45;&gt;unicode/utf8</title>
<path fill="none" stroke="black" d="M208.1,-538.51C242.57,-575.84 327.76,-661.67 418,-703.49 456.59,-721.38 504.29,-729.57 539.98,-733.32"/>
<polygon fill="black" stroke="black" points="539.89,-736.83 550.18,-734.31 540.56,-729.86 539.89,-736.83"/>
</g>
<!-- github.com/nikolaydubina/go&#45;featureprocessing/transformers -->
<g id="node27" class="node">
<title>github.com/nikolaydubina/go&#45;featureprocessing/transformers</title>
<polygon fill="none" stroke="black" points="418,-13.49 418,-49.49 768,-49.49 768,-13.49 418,-13.49"/>
<text text-anchor="middle" x="593" y="-27.79" font-family="Times,serif" font-size="14.00">github.com/nikolaydubina/go&#45;featureprocessing/transformers</text>
</g>
<!-- github.com/nikolaydubina/go&#45;featureprocessing/transformers&#45;&gt;math -->
<g id="edge29" class="edge">
<title>github.com/nikolaydubina/go&#45;featureprocessing/transformers&#45;&gt;math</title>
<path fill="none" stroke="black" d="M660.28,-13.44C732.47,1.99 847.8,13.78 924,-42.49 990.3,-91.45 1002.76,-198.16 1004.81,-249.19"/>
<polygon fill="black" stroke="black" points="1001.32,-249.59 1005.11,-259.49 1008.32,-249.39 1001.32,-249.59"/>
</g>
<!-- github.com/nikolaydubina/go&#45;featureprocessing/transformers&#45;&gt;strings -->
<g id="edge31" class="edge">
<title>github.com/nikolaydubina/go&#45;featureprocessing/transformers&#45;&gt;strings</title>
<path fill="none" stroke="black" d="M729.92,-49.57C743.13,-53.59 756.04,-58.5 768,-64.49 787.4,-74.22 785.99,-85.37 804,-97.49 811.3,-102.41 819.6,-106.92 827.62,-110.81"/>
<polygon fill="black" stroke="black" points="826.28,-114.05 836.83,-115.09 829.23,-107.7 826.28,-114.05"/>
</g>
<!-- sort -->
<g id="node28" class="node">
<title>sort</title>
<polygon fill="none" stroke="black" points="837,-52.49 837,-88.49 891,-88.49 891,-52.49 837,-52.49"/>
<text text-anchor="middle" x="864" y="-66.79" font-family="Times,serif" font-size="14.00">sort</text>
</g>
<!-- github.com/nikolaydubina/go&#45;featureprocessing/transformers&#45;&gt;sort -->
<g id="edge30" class="edge">
<title>github.com/nikolaydubina/go&#45;featureprocessing/transformers&#45;&gt;sort</title>
<path fill="none" stroke="black" d="M718.26,-49.51C757.81,-55.24 798.55,-61.15 826.69,-65.23"/>
<polygon fill="black" stroke="black" points="826.43,-68.73 836.83,-66.7 827.43,-61.8 826.43,-68.73"/>
</g>
<!-- github.com/nikolaydubina/go&#45;featureprocessing/cmd/generate/tests -->
<g id="node29" class="node">
<title>github.com/nikolaydubina/go&#45;featureprocessing/cmd/generate/tests</title>
<polygon fill="none" stroke="black" points="0,-37.49 0,-73.49 382,-73.49 382,-37.49 0,-37.49"/>
<text text-anchor="middle" x="191" y="-51.79" font-family="Times,serif" font-size="14.00">github.com/nikolaydubina/go&#45;featureprocessing/cmd/generate/tests</text>
</g>
<!-- github.com/nikolaydubina/go&#45;featureprocessing/cmd/generate/tests&#45;&gt;sync -->
<g id="edge33" class="edge">
<title>github.com/nikolaydubina/go&#45;featureprocessing/cmd/generate/tests&#45;&gt;sync</title>
<path fill="none" stroke="black" d="M382.17,-62.92C525.62,-71.97 707.65,-91.88 768,-135.49 823.51,-175.6 848.24,-257.28 857.8,-300.39"/>
<polygon fill="black" stroke="black" points="854.39,-301.16 859.87,-310.23 861.24,-299.72 854.39,-301.16"/>
</g>
<!-- github.com/nikolaydubina/go&#45;featureprocessing/cmd/generate/tests&#45;&gt;github.com/nikolaydubina/go&#45;featureprocessing/transformers -->
<g id="edge32" class="edge">
<title>github.com/nikolaydubina/go&#45;featureprocessing/cmd/generate/tests&#45;&gt;github.com/nikolaydubina/go&#45;featureprocessing/transformers</title>
<path fill="none" stroke="black" d="M382.04,-44.09C390.66,-43.57 399.31,-43.05 407.91,-42.54"/>
<polygon fill="black" stroke="black" points="408.22,-46.03 417.99,-41.93 407.8,-39.04 408.22,-46.03"/>
</g>
<!-- github.com/nikolaydubina/go&#45;featureprocessing/structtransformer -->
<g id="node30" class="node">
<title>github.com/nikolaydubina/go&#45;featureprocessing/structtransformer</title>
<polygon fill="none" stroke="black" points="4,-938.49 4,-974.49 378,-974.49 378,-938.49 4,-938.49"/>
<text text-anchor="middle" x="191" y="-952.79" font-family="Times,serif" font-size="14.00">github.com/nikolaydubina/go&#45;featureprocessing/structtransformer</text>
</g>
<!-- reflect -->
<g id="node31" class="node">
<title>reflect</title>
<polygon fill="none" stroke="black" points="566,-938.49 566,-974.49 620,-974.49 620,-938.49 566,-938.49"/>
<text text-anchor="middle" x="593" y="-952.79" font-family="Times,serif" font-size="14.00">reflect</text>
</g>
<!-- github.com/nikolaydubina/go&#45;featureprocessing/structtransformer&#45;&gt;reflect -->
<g id="edge34" class="edge">
<title>github.com/nikolaydubina/go&#45;featureprocessing/structtransformer&#45;&gt;reflect</title>
<path fill="none" stroke="black" d="M378.24,-956.49C445.42,-956.49 514.68,-956.49 555.51,-956.49"/>
<polygon fill="black" stroke="black" points="555.75,-959.99 565.75,-956.49 555.75,-952.99 555.75,-959.99"/>
</g>
</g>
</svg>
